<svg width="40" height="40" viewBox="0 0 40 40" fill="none" xmlns="http://www.w3.org/2000/svg">
<g clip-path="url(#clip0_306_27583)">
<path d="M60 0H0V40H60V0Z" fill="#CE1720"/>
<path d="M0.445312 0H9.3342V40H0.445312V0Z" fill="white"/>
<path d="M5.08345 0V1.44889H4.69234V0H5.08345ZM0.0878906 2.53333H0.790113V1.95556H1.14567V1.25333H1.64345V0.64H2.05234V0H3.28789V0.64H3.68789V1.25333H4.18567V1.95556H4.54122V2.53333H5.08345V3.43111H4.54122V4.00889H4.18567V4.71111H3.68789V5.32445H3.28789V5.98222H3.00345V6.53333H2.33678V5.98222H2.05234V5.32445H1.64345V4.71111H1.14567V4.00889H0.790113V3.43111H0.0878906M0.0878906 0.302222H0.790113V1.10222H0.0878906M2.84345 1.34222H2.479V1.88444H2.13234V2.56889H1.79456V3.41333H2.13234V4.09778H2.479V4.63111H2.84345V4.09778H3.19011V3.41333H3.53678V2.56889H3.19011V1.88444H2.84345V1.34222ZM2.879 2.57778V3.37778H2.44345V2.57778H2.879ZM0.0878906 4.67556H0.790113V5.53778H0.0878906M5.08345 4.75556V5.97333H4.69234V4.75556H5.08345ZM4.12345 6.10667V6.71111H4.55011V7.33333H5.08345V8.15111H4.55011V8.78222H4.12345V9.38667H3.62567V8.78222H3.199V8.15111H2.84345V7.33333H3.199V6.71111H3.62567V6.10667H4.12345ZM0.0878906 7.33333H0.790113V6.71111H1.21678V6.10667H1.70567V6.71111H2.13234V7.33333H2.48789V8.15111H2.13234V8.78222H1.70567V9.38667H1.21678V8.78222H0.790113V8.15111H0.0878906M4.06122 7.35111H3.69678V8.12445H4.06122V7.35111ZM1.65234 7.35111H1.28789V8.12445H1.65234V7.35111ZM1.79456 20.16V19.7422H1.49234V19.1111H1.09234V18.7289H0.790113V18.1156H0.0878906V16.6933H0.790113V17.1022H1.09234V17.6978H1.49234V18.4089H2.06122V17.7689H2.479V17.2978H2.78122V16.7378H3.18122V16.1422H3.47456V15.5378H3.759V14.9156H4.14122V14.08H3.63456V13.3244H3.08345V12.8711H2.159V13.5289H2.69234V14.1244H2.33678V14.8533H1.919V15.4933H1.39456V14.8533H0.959002V14.1244H0.692335V13.5289H0.0878906V12.4H0.790113V11.6711H1.05678V11.1111H1.30567V10.4711H1.66122V9.84H2.00789V9.42222H2.42567V8.79111H2.93234V9.42222H3.35011V9.84H3.70567V10.4711H4.05234V11.1111H4.33678V11.6622H4.62122V12.1422H5.08345V15.6711H4.559V16.2667H4.40789V16.8889H4.01678V17.4933H3.77678V17.9378H3.52789V18.4089H3.10122V18.8711H2.48789V20.16M5.08345 9.37778V10.5956H4.69234V9.37778H5.08345ZM0.0878906 9.60889H0.790113V10.4711H0.0878906M0.0878906 14.7911H0.790113V15.6533H0.0878906V14.7911ZM5.06567 16.9778V17.76H4.69234V16.9778H5.06567ZM4.55011 20.16V19.6711H4.319V19.2889H3.98122V18.1422H4.319V18.6044H4.67456V19.28H5.06567V20.1511M3.16345 20.1511V19.5822H3.53678V20.1511" fill="#CE1720"/>
<path d="M4.69194 0V1.44889H5.08306V0H4.69194ZM9.6875 2.53333H8.98528V1.95556H8.62972V1.25333H8.13194V0.64H7.72306V0H6.4875V0.64H6.0875V1.25333H5.58972V1.95556H5.23417V2.53333H4.69194V3.43111H5.23417V4.00889H5.58972V4.71111H6.0875V5.32445H6.4875V5.98222H6.77194V6.53333H7.43861V5.98222H7.72306V5.32445H8.13194V4.71111H8.62972V4.00889H8.98528V3.43111H9.6875M9.6875 0.302222H8.98528V1.10222H9.6875M6.93194 1.34222H7.29639V1.88444H7.64306V2.56889H7.98083V3.41333H7.64306V4.09778H7.29639V4.63111H6.93194V4.09778H6.58528V3.41333H6.23861V2.56889H6.58528V1.88444H6.93194V1.34222ZM6.89639 2.57778V3.37778H7.33194V2.57778H6.89639ZM9.6875 4.67556H8.98528V5.53778H9.6875M4.69194 4.75556V5.97333H5.08306V4.75556H4.69194ZM5.65194 6.10667V6.71111H5.22528V7.33333H4.69194V8.15111H5.22528V8.78222H5.65194V9.38667H6.14972V8.78222H6.57639V8.15111H6.93194V7.33333H6.57639V6.71111H6.14972V6.10667H5.65194ZM9.6875 7.33333H8.98528V6.71111H8.55861V6.10667H8.06972V6.71111H7.64306V7.33333H7.2875V8.15111H7.64306V8.78222H8.06972V9.38667H8.55861V8.78222H8.98528V8.15111H9.6875M5.71417 7.35111H6.07861V8.12445H5.71417V7.35111ZM8.12306 7.35111H8.4875V8.12445H8.12306V7.35111ZM7.98083 20.16V19.7422H8.28306V19.1111H8.68306V18.7289H8.98528V18.1156H9.6875V16.6933H8.98528V17.1022H8.68306V17.6978H8.28306V18.4089H7.71417V17.7689H7.29639V17.2978H6.99417V16.7378H6.59417V16.1422H6.30083V15.5378H6.01639V14.9156H5.63417V14.08H6.14083V13.3244H6.69194V12.8711H7.61639V13.5289H7.08306V14.1244H7.43861V14.8533H7.85639V15.4933H8.38083V14.8533H8.81639V14.1244H9.08306V13.5289H9.6875V12.4H8.98528V11.6711H8.71861V11.1111H8.46972V10.4711H8.11417V9.84H7.7675V9.42222H7.34972V8.79111H6.84306V9.42222H6.42528V9.84H6.06972V10.4711H5.72306V11.1111H5.43861V11.6622H5.15417V12.1422H4.69194V15.6711H5.21639V16.2667H5.3675V16.8889H5.75861V17.4933H5.99861V17.9378H6.2475V18.4089H6.67417V18.8711H7.2875V20.16M4.69194 9.37778V10.5956H5.08306V9.37778H4.69194ZM9.6875 9.60889H8.98528V10.4711H9.6875M9.6875 14.7911H8.98528V15.6533H9.6875V14.7911ZM4.70972 16.9778V17.76H5.08306V16.9778H4.70972ZM5.22528 20.16V19.6711H5.45639V19.2889H5.79417V18.1422H5.45639V18.6044H5.10083V19.28H4.70972V20.1511M6.61194 20.1511V19.5822H6.23861V20.1511" fill="#CE1720"/>
<path d="M5.08345 40.0003V38.5514H4.69234V40.0003H5.08345ZM0.0878906 37.467H0.790113V38.0447H1.14567V38.747H1.64345V39.3603H2.05234V40.0003H3.28789V39.3603H3.68789V38.747H4.18567V38.0447H4.54122V37.467H5.08345V36.5692H4.54122V35.9914H4.18567V35.2892H3.68789V34.6759H3.28789V34.0181H3.00345V33.467H2.33678V34.0181H2.05234V34.6759H1.64345V35.2892H1.14567V35.9914H0.790113V36.5692H0.0878906M0.0878906 39.6981H0.790113V38.8981H0.0878906M2.84345 38.6581H2.479V38.1159H2.13234V37.4314H1.79456V36.587H2.13234V35.9025H2.479V35.3692H2.84345V35.9025H3.19011V36.587H3.53678V37.4314H3.19011V38.1159H2.84345V38.6581ZM2.879 37.4225V36.6225H2.44345V37.4225H2.879ZM0.0878906 35.3247H0.790113V34.4625H0.0878906M5.08345 35.2447V34.027H4.69234V35.2447H5.08345ZM4.12345 33.8936V33.2892H4.55011V32.667H5.08345V31.8492H4.55011V31.2181H4.12345V30.6136H3.62567V31.2181H3.199V31.8492H2.84345V32.667H3.199V33.2892H3.62567V33.8936H4.12345ZM0.0878906 32.667H0.790113V33.2892H1.21678V33.8936H1.70567V33.2892H2.13234V32.667H2.48789V31.8492H2.13234V31.2181H1.70567V30.6136H1.21678V31.2181H0.790113V31.8492H0.0878906M4.06122 32.6492H3.69678V31.8759H4.06122V32.6492ZM1.65234 32.6492H1.28789V31.8759H1.65234V32.6492ZM1.79456 19.8403V20.2581H1.49234V20.8892H1.09234V21.2714H0.790113V21.8847H0.0878906V23.307H0.790113V22.8981H1.09234V22.3025H1.49234V21.5914H2.06122V22.2314H2.479V22.7025H2.78122V23.2625H3.18122V23.8581H3.47456V24.4625H3.759V25.0847H4.14122V25.9203H3.63456V26.6759H3.08345V27.1292H2.159V26.4714H2.69234V25.8759H2.33678V25.147H1.919V24.507H1.39456V25.147H0.959002V25.8759H0.692335V26.4714H0.0878906V27.6003H0.790113V28.3292H1.05678V28.8892H1.30567V29.5292H1.66122V30.1603H2.00789V30.5781H2.42567V31.2092H2.93234V30.5781H3.35011V30.1603H3.70567V29.5292H4.05234V28.8892H4.33678V28.3381H4.62122V27.8581H5.08345V24.3292H4.559V23.7336H4.40789V23.1114H4.01678V22.507H3.77678V22.0625H3.52789V21.5914H3.10122V21.1292H2.48789V19.8403M5.08345 30.6225V29.4047H4.69234V30.6225H5.08345ZM0.0878906 30.3914H0.790113V29.5292H0.0878906M0.0878906 25.2092H0.790113V24.347H0.0878906V25.2092ZM5.06567 23.0225V22.2403H4.69234V23.0225H5.06567ZM4.55011 19.8403V20.3292H4.319V20.7114H3.98122V21.8581H4.319V21.3959H4.67456V20.7203H5.06567V19.8492M3.16345 19.8492V20.4181H3.53678V19.8492" fill="#CE1720"/>
<path d="M4.69194 40.0003V38.5514H5.08306V40.0003H4.69194ZM9.6875 37.467H8.98528V38.0447H8.62972V38.747H8.13194V39.3603H7.72306V40.0003H6.4875V39.3603H6.0875V38.747H5.58972V38.0447H5.23417V37.467H4.69194V36.5692H5.23417V35.9914H5.58972V35.2892H6.0875V34.6759H6.4875V34.0181H6.77194V33.467H7.43861V34.0181H7.72306V34.6759H8.13194V35.2892H8.62972V35.9914H8.98528V36.5692H9.6875M9.6875 39.6981H8.98528V38.8981H9.6875M6.93194 38.6581H7.29639V38.1159H7.64306V37.4314H7.98083V36.587H7.64306V35.9025H7.29639V35.3692H6.93194V35.9025H6.58528V36.587H6.23861V37.4314H6.58528V38.1159H6.93194V38.6581ZM6.89639 37.4225V36.6225H7.33194V37.4225H6.89639ZM9.6875 35.3247H8.98528V34.4625H9.6875M4.69194 35.2447V34.027H5.08306V35.2447H4.69194ZM5.65194 33.8936V33.2892H5.22528V32.667H4.69194V31.8492H5.22528V31.2181H5.65194V30.6136H6.14972V31.2181H6.57639V31.8492H6.93194V32.667H6.57639V33.2892H6.14972V33.8936H5.65194ZM9.6875 32.667H8.98528V33.2892H8.55861V33.8936H8.06972V33.2892H7.64306V32.667H7.2875V31.8492H7.64306V31.2181H8.06972V30.6136H8.55861V31.2181H8.98528V31.8492H9.6875M5.71417 32.6492H6.07861V31.8759H5.71417V32.6492ZM8.12306 32.6492H8.4875V31.8759H8.12306V32.6492ZM7.98083 19.8403V20.2581H8.28306V20.8892H8.68306V21.2714H8.98528V21.8847H9.6875V23.307H8.98528V22.8981H8.68306V22.3025H8.28306V21.5914H7.71417V22.2314H7.29639V22.7025H6.99417V23.2625H6.59417V23.8581H6.30083V24.4625H6.01639V25.0847H5.63417V25.9203H6.14083V26.6759H6.69194V27.1292H7.61639V26.4714H7.08306V25.8759H7.43861V25.147H7.85639V24.507H8.38083V25.147H8.81639V25.8759H9.08306V26.4714H9.6875V27.6003H8.98528V28.3292H8.71861V28.8892H8.46972V29.5292H8.11417V30.1603H7.7675V30.5781H7.34972V31.2092H6.84306V30.5781H6.42528V30.1603H6.06972V29.5292H5.72306V28.8892H5.43861V28.3381H5.15417V27.8581H4.69194V24.3292H5.21639V23.7336H5.3675V23.1114H5.75861V22.507H5.99861V22.0625H6.2475V21.5914H6.67417V21.1292H7.2875V19.8403M4.69194 30.6225V29.4047H5.08306V30.6225H4.69194ZM9.6875 30.3914H8.98528V29.5292H9.6875M9.6875 25.2092H8.98528V24.347H9.6875V25.2092ZM4.70972 23.0225V22.2403H5.08306V23.0225H4.70972ZM5.22528 19.8403V20.3292H5.45639V20.7114H5.79417V21.8581H5.45639V21.3959H5.10083V20.7203H4.70972V19.8492M6.61194 19.8492V20.4181H6.23861V19.8492" fill="#CE1720"/>
<path d="M9.33203 26.6665H59.9987V39.9998H9.33203V26.6665Z" fill="#007C30"/>
</g>
<defs>
<clipPath id="clip0_306_27583">
<rect width="40" height="40" rx="20" fill="white"/>
</clipPath>
</defs>
</svg>
