<?xml version="1.0" encoding="UTF-8"?>
<svg id="_Слой_1" data-name="Слой 1" xmlns="http://www.w3.org/2000/svg" xmlns:xlink="http://www.w3.org/1999/xlink" viewBox="-2 -2 107 14">
  <defs>
    <style>
      .cls-1 {
        fill: #369;
      }

      .cls-2 {
        filter: url(#drop-shadow-3);
      }

      .cls-3 {
        fill: #3c4765;
      }

      .cls-4 {
        fill: #c00000;
      }
    </style>
    <filter id="drop-shadow-3" filterUnits="userSpaceOnUse">
      <feOffset dx="-1" dy="1"/>
      <feGaussianBlur result="blur" stdDeviation="1"/>
      <feFlood flood-color="#000" flood-opacity=".26"/>
      <feComposite in2="blur" operator="in"/>
      <feComposite in="SourceGraphic"/>
    </filter>
  </defs>
  <g class="cls-2">
    <rect class="cls-1" x="2.06" y=".67" width="6.22" height="8.65" rx="1.08" ry="1.08"/>
    <rect class="cls-3" x="10.73" y=".67" width="8.65" height="8.65" rx="1.08" ry="1.08"/>
    <circle class="cls-4" cx="25.76" cy="5" r="4.33"/>
    <g>
      <path class="cls-3" d="m34.08.88h1.58v2.84l2.24-2.84h1.88l-2.88,3.68,3.16,4.56h-1.86l-2.54-3.66v3.66h-1.58V.88Z"/>
      <path transform="translate(1 0)" class="cls-3" d="m45.06.67c1.17,0,2.17.42,3.01,1.27.84.84,1.26,1.87,1.26,3.08s-.41,2.22-1.24,3.05c-.83.83-1.83,1.25-3.01,1.25s-2.26-.43-3.08-1.28c-.82-.85-1.23-1.87-1.23-3.05,0-.79.19-1.51.57-2.17.38-.66.9-1.18,1.57-1.57.67-.39,1.38-.58,2.15-.58Zm-.02,1.53c-.76,0-1.4.27-1.92.79-.52.53-.78,1.2-.78,2.02,0,.91.33,1.63.98,2.16.51.41,1.09.62,1.75.62.74,0,1.38-.27,1.9-.81s.78-1.2.78-1.99-.26-1.45-.79-1.99-1.17-.81-1.92-.81Z"/>
      <path transform="translate(2 0)" class="cls-3" d="m50.8.88h1.59v3.11h2.75V.88h1.58v8.24h-1.58v-3.61h-2.75v3.61h-1.59V.88Z"/>
      <path transform="translate(3 0)" class="cls-3" d="m66.17,2.33l-1.1,1.05c-.75-.79-1.58-1.18-2.52-1.18-.79,0-1.45.27-1.99.81-.54.54-.81,1.2-.81,1.99,0,.55.12,1.04.36,1.46.24.43.58.76,1.01,1,.44.24.92.36,1.45.36.45,0,.87-.08,1.25-.25.38-.17.79-.48,1.24-.93l1.06,1.11c-.61.59-1.18,1.01-1.72,1.24-.54.23-1.16.34-1.85.34-.92,0-1.73-.21-2.41-.63-.26-.16-.51-.36-.73-.58-.82-.81-1.22-1.85-1.22-3.12,0-.82.19-1.55.56-2.19.37-.64.9-1.15,1.6-1.54.69-.39,1.44-.58,2.24-.58.68,0,1.33.14,1.96.43.63.29,1.17.69,1.63,1.22Z"/>
      <path transform="translate(4 0)" class="cls-3" d="m66.73.88h4.55v1.55h-1.5v6.69h-1.59V2.43h-1.46V.88Z"/>
      <path transform="translate(5 0)" class="cls-3" d="m74.87.88h1.59l3.17,8.24h-1.63l-.64-1.7h-3.36l-.67,1.7h-1.63l3.18-8.24Zm.8,2.18l-1.11,2.83h2.2l-1.1-2.83Z"/>
      <path transform="translate(6 0)" class="cls-3" d="m86.18,9.12l-2.28-6.06-2.32,6.06h-1.66l3.18-8.24h1.59l3.17,8.24h-1.67Z"/>
      <path transform="translate(7 0)" class="cls-3" d="m88.79,9.12V.88h1.57v3.11h.34c.65,0,1.2.08,1.63.23s.81.44,1.13.86.48.93.48,1.53c0,.56-.14,1.04-.41,1.43-.27.39-.59.67-.95.83-.36.16-.85.24-1.48.24h-2.31Zm1.57-3.73v2.23h.39c.65,0,1.08-.08,1.3-.24s.33-.43.33-.82c0-.78-.57-1.17-1.7-1.17h-.32Z"/>
    </g>
  </g>
</svg>