<?xml version="1.0" encoding="UTF-8"?>
<svg id="_Слой_1" data-name="Слой 1" xmlns="http://www.w3.org/2000/svg" xmlns:xlink="http://www.w3.org/1999/xlink" viewBox="-1 -1 363.5 49.5">
  <defs>
    <style>
      .cls-1 {
        fill: #369;
      }

      .cls-2 {
        filter: url(#drop-shadow-2);
      }

      .cls-3 {
        fill: #3c4765;
      }

      .cls-4 {
        fill: #c00000;
      }
    </style>
    <filter id="drop-shadow-2" filterUnits="userSpaceOnUse">
      <feOffset dx="-2" dy="2"/>
      <feGaussianBlur result="blur" stdDeviation="2"/>
      <feFlood flood-color="#000" flood-opacity=".28"/>
      <feComposite in2="blur" operator="in"/>
      <feComposite in="SourceGraphic"/>
    </filter>
  </defs>
  <g>
    <path class="cls-3" d="m5.05,38.58h6.05v7.2h-.93v-6.33h-4.19v6.33h-.93v-7.2Z"/>
    <path class="cls-3" d="m13.18,38.58h.93v1.32c.37-.5.79-.88,1.26-1.13.48-.25,1.01-.38,1.59-.38,1.02,0,1.9.37,2.63,1.11.73.74,1.09,1.62,1.09,2.66s-.36,1.96-1.08,2.7c-.72.74-1.59,1.11-2.61,1.11-.57,0-1.1-.12-1.58-.36-.48-.24-.92-.59-1.3-1.07v3.87h-.93v-9.84Zm3.71.71c-.8,0-1.48.28-2.02.84-.55.56-.82,1.26-.82,2.09,0,.55.12,1.04.37,1.48.24.44.59.78,1.05,1.04.46.26.94.38,1.44.38s.97-.13,1.4-.39c.44-.26.79-.62,1.05-1.08s.39-.95.39-1.45-.13-1-.39-1.45-.6-.81-1.04-1.07c-.44-.25-.91-.38-1.43-.38Z"/>
    <path class="cls-3" d="m25.82,38.39c1.11,0,2.03.4,2.76,1.21.66.73.99,1.6.99,2.6s-.35,1.89-1.05,2.64c-.7.75-1.6,1.13-2.7,1.13s-2.01-.38-2.71-1.13c-.7-.75-1.05-1.63-1.05-2.64s.33-1.86.99-2.6c.73-.81,1.65-1.21,2.77-1.21Zm0,.91c-.77,0-1.43.28-1.99.85-.55.57-.83,1.26-.83,2.07,0,.52.13,1.01.38,1.46.25.45.59.8,1.02,1.04s.9.37,1.42.37.99-.12,1.42-.37c.43-.25.77-.59,1.02-1.04s.38-.94.38-1.46c0-.81-.28-1.5-.83-2.07-.56-.57-1.22-.85-1.98-.85Z"/>
    <path class="cls-3" d="m32.22,38.58v5.33l5.29-5.33h.07v7.2h-.93v-5.28l-5.25,5.28h-.11v-7.2h.93Z"/>
    <path class="cls-3" d="m40.86,41.6h.48c.31,0,.59-.1.85-.3.26-.2.39-.49.39-.87,0-.32-.1-.6-.31-.83-.21-.23-.52-.35-.95-.35-.5,0-1,.19-1.5.58l-.53-.64c.65-.54,1.34-.81,2.07-.81.6,0,1.1.18,1.51.53.41.36.61.82.61,1.38,0,.75-.33,1.26-.99,1.52.87.36,1.3,1,1.3,1.9,0,.57-.2,1.09-.61,1.55s-1.01.69-1.81.69c-.98,0-1.78-.32-2.38-.96l.59-.66c.45.5,1.02.75,1.71.75.47,0,.83-.13,1.1-.38.27-.25.4-.58.4-.99s-.13-.72-.4-.97c-.27-.24-.59-.36-.95-.36h-.57v-.8Z"/>
    <path class="cls-3" d="m47.48,45.78h-2.09v-7.2h2.06c.79,0,1.35.18,1.7.54.35.36.52.78.52,1.27,0,.73-.32,1.23-.97,1.49.94.33,1.4.97,1.4,1.92,0,1.33-.87,1.99-2.62,1.99Zm-1.17-6.4v2.24h.6c.55,0,.91-.02,1.08-.07.17-.04.33-.15.47-.33.15-.17.22-.4.22-.69s-.08-.55-.23-.75c-.15-.2-.32-.32-.49-.36-.17-.03-.52-.05-1.05-.05h-.6Zm0,3.1v2.52h1c.47,0,.8-.03,1.01-.09s.37-.19.52-.39.22-.45.22-.75c0-.39-.12-.71-.37-.94s-.58-.35-.98-.35h-1.38Z"/>
    <path class="cls-3" d="m55.14,38.39c1.11,0,2.03.4,2.76,1.21.66.73.99,1.6.99,2.6s-.35,1.89-1.05,2.64c-.7.75-1.6,1.13-2.7,1.13s-2.01-.38-2.71-1.13c-.7-.75-1.05-1.63-1.05-2.64s.33-1.86.99-2.6c.73-.81,1.65-1.21,2.77-1.21Zm0,.91c-.77,0-1.43.28-1.99.85-.55.57-.83,1.26-.83,2.07,0,.52.13,1.01.38,1.46.25.45.59.8,1.02,1.04s.9.37,1.42.37.99-.12,1.42-.37c.43-.25.77-.59,1.02-1.04s.38-.94.38-1.46c0-.81-.28-1.5-.83-2.07-.56-.57-1.22-.85-1.98-.85Z"/>
    <path class="cls-3" d="m60.67,45l2.78-6.42h.48l2.77,6.42h.87v1.71h-.89v-.92h-5.96v.96h-.91v-1.75h.87Zm3.01-4.99l-2.11,4.99h4.13l-2.02-4.99Z"/>
    <path class="cls-3" d="m75.81,40.08l-.73.46c-.63-.84-1.5-1.26-2.6-1.26-.88,0-1.61.28-2.19.85-.58.56-.87,1.25-.87,2.06,0,.52.13,1.02.4,1.48.27.46.63.82,1.1,1.08s.99.38,1.56.38c1.06,0,1.92-.42,2.59-1.26l.73.48c-.34.52-.81.92-1.39,1.21s-1.24.43-1.98.43c-1.14,0-2.08-.36-2.83-1.09-.75-.72-1.13-1.6-1.13-2.64,0-.7.18-1.35.53-1.94.35-.6.83-1.07,1.45-1.4.61-.34,1.3-.5,2.06-.5.48,0,.94.07,1.38.22.44.15.82.34,1.13.57.31.23.57.53.79.89Z"/>
    <path class="cls-3" d="m76.78,38.58h4.74v.8h-1.91v6.4h-.93v-6.4h-1.91v-.8Z"/>
    <path class="cls-3" d="m84.87,45.78h-2.09v-7.2h2.06c.79,0,1.35.18,1.7.54.35.36.52.78.52,1.27,0,.73-.32,1.23-.97,1.49.94.33,1.4.97,1.4,1.92,0,1.33-.87,1.99-2.62,1.99Zm-1.17-6.4v2.24h.6c.55,0,.91-.02,1.08-.07.17-.04.33-.15.47-.33.15-.17.22-.4.22-.69s-.08-.55-.23-.75c-.15-.2-.32-.32-.49-.36-.17-.03-.52-.05-1.05-.05h-.6Zm0,3.1v2.52h1c.47,0,.8-.03,1.01-.09s.37-.19.52-.39.22-.45.22-.75c0-.39-.12-.71-.37-.94s-.58-.35-.98-.35h-1.38Z"/>
    <path class="cls-3" d="m95.19,43.39l.78.41c-.26.5-.55.91-.89,1.22-.34.31-.71.54-1.13.71-.42.16-.9.24-1.42.24-1.18,0-2.09-.39-2.76-1.16s-.99-1.64-.99-2.61c0-.91.28-1.73.84-2.44.71-.91,1.66-1.36,2.86-1.36s2.21.47,2.94,1.4c.52.66.79,1.48.8,2.46h-6.48c.02.84.29,1.52.8,2.06s1.16.8,1.92.8c.37,0,.72-.06,1.07-.19.35-.13.64-.3.88-.51.24-.21.51-.55.79-1.02Zm0-1.94c-.12-.49-.3-.89-.54-1.19-.24-.3-.55-.53-.94-.72-.39-.18-.8-.27-1.23-.27-.71,0-1.32.23-1.82.68-.37.33-.65.83-.84,1.49h5.37Z"/>
    <path class="cls-3" d="m103.06,42.31h-4.19v3.47h-.93v-7.2h.93v2.86h4.19v-2.86h.93v7.2h-.93v-3.47Z"/>
    <path class="cls-3" d="m111.17,42.31h-4.19v3.47h-.93v-7.2h.93v2.86h4.19v-2.86h.93v7.2h-.93v-3.47Z"/>
    <path class="cls-3" d="m117.57,38.39c1.11,0,2.03.4,2.76,1.21.66.73.99,1.6.99,2.6s-.35,1.89-1.05,2.64c-.7.75-1.6,1.13-2.7,1.13s-2.01-.38-2.71-1.13c-.7-.75-1.05-1.63-1.05-2.64s.33-1.86.99-2.6c.73-.81,1.65-1.21,2.77-1.21Zm0,.91c-.77,0-1.43.28-1.99.85-.55.57-.83,1.26-.83,2.07,0,.52.13,1.01.38,1.46.25.45.59.8,1.02,1.04s.9.37,1.42.37.99-.12,1.42-.37c.43-.25.77-.59,1.02-1.04s.38-.94.38-1.46c0-.81-.28-1.5-.83-2.07-.56-.57-1.22-.85-1.98-.85Z"/>
    <path class="cls-3" d="m122.44,41.72h3.64v.81h-3.64v-.81Z"/>
    <path class="cls-3" d="m135.37,38.58h.26l2.45,7.2h-.97l-1.79-5.3-2.77,5.3h-.17l-2.78-5.31-1.78,5.31h-.97l2.46-7.2h.25l2.9,5.64,2.89-5.64Z"/>
    <path class="cls-3" d="m142.87,38.39c1.11,0,2.03.4,2.76,1.21.66.73.99,1.6.99,2.6s-.35,1.89-1.05,2.64c-.7.75-1.6,1.13-2.7,1.13s-2.01-.38-2.71-1.13c-.7-.75-1.05-1.63-1.05-2.64s.33-1.86.99-2.6c.73-.81,1.65-1.21,2.77-1.21Zm0,.91c-.77,0-1.43.28-1.99.85-.55.57-.83,1.26-.83,2.07,0,.52.13,1.01.38,1.46.25.45.59.8,1.02,1.04s.9.37,1.42.37.99-.12,1.42-.37c.43-.25.77-.59,1.02-1.04s.38-.94.38-1.46c0-.81-.28-1.5-.83-2.07-.56-.57-1.22-.85-1.98-.85Z"/>
    <path class="cls-3" d="m153.46,42.31h-4.19v3.47h-.93v-7.2h.93v2.86h4.19v-2.86h.93v7.2h-.93v-3.47Z"/>
    <path class="cls-3" d="m155.65,38.58h4.74v.8h-1.91v6.4h-.93v-6.4h-1.91v-.8Z"/>
    <path class="cls-3" d="m168.83,38.58v7.2h-.91v-1.24c-.39.47-.82.83-1.31,1.07s-1.01.36-1.59.36c-1.02,0-1.89-.37-2.61-1.11-.72-.74-1.08-1.64-1.08-2.7s.36-1.93,1.09-2.66c.73-.74,1.61-1.11,2.63-1.11.59,0,1.13.13,1.61.38s.9.63,1.26,1.13v-1.32h.91Zm-3.71.71c-.52,0-.99.13-1.43.38-.44.25-.78.61-1.04,1.07-.26.46-.39.94-.39,1.45s.13.99.39,1.45c.26.46.61.82,1.05,1.08.44.26.91.39,1.41.39s.99-.13,1.44-.38.8-.6,1.05-1.04c.24-.44.37-.93.37-1.48,0-.83-.27-1.53-.82-2.09-.55-.56-1.22-.84-2.03-.84Z"/>
    <path class="cls-3" d="m174.61,38.58h.94v3.19l3.44-3.19h1.13l-3.41,3.21,3.66,3.99h-1.19l-3.12-3.48-.53.44v3.04h-.94v-3.04l-.52-.44-3.1,3.48h-1.2l3.62-4-3.35-3.21h1.13l3.41,3.18v-3.18Z"/>
    <path class="cls-3" d="m186.46,42.31h-4.19v3.47h-.93v-7.2h.93v2.86h4.19v-2.86h.93v7.2h-.93v-3.47Z"/>
    <path class="cls-3" d="m196.63,38.58v7.2h-.91v-1.24c-.39.47-.82.83-1.31,1.07s-1.01.36-1.59.36c-1.02,0-1.89-.37-2.61-1.11-.72-.74-1.08-1.64-1.08-2.7s.36-1.93,1.09-2.66c.73-.74,1.61-1.11,2.63-1.11.59,0,1.13.13,1.61.38s.9.63,1.26,1.13v-1.32h.91Zm-3.71.71c-.52,0-.99.13-1.43.38-.44.25-.78.61-1.04,1.07-.26.46-.39.94-.39,1.45s.13.99.39,1.45c.26.46.61.82,1.05,1.08.44.26.91.39,1.41.39s.99-.13,1.44-.38.8-.6,1.05-1.04c.24-.44.37-.93.37-1.48,0-.83-.27-1.53-.82-2.09-.55-.56-1.22-.84-2.03-.84Z"/>
    <path class="cls-3" d="m201.76,42.56h-.66l-2.06,3.22h-1l2.17-3.32c-.54-.07-.98-.27-1.31-.61s-.5-.77-.5-1.27c0-.64.19-1.13.58-1.48.39-.35.89-.52,1.52-.52h2.19v7.2h-.93v-3.22Zm0-3.18h-.61c-.59,0-.99.04-1.19.11-.2.07-.36.2-.48.39-.12.18-.18.43-.18.74s.08.54.23.73.33.31.52.35c.19.04.56.07,1.11.07h.61v-2.39Z"/>
    <path class="cls-3" d="m209.43,39.4v6.39h-.93v-7.2h3.64v.81h-2.71Z"/>
    <path class="cls-3" d="m213.41,38.58h.93v1.32c.37-.5.79-.88,1.26-1.13s1.01-.38,1.59-.38c1.02,0,1.9.37,2.63,1.11.73.74,1.09,1.62,1.09,2.66s-.36,1.96-1.08,2.7-1.59,1.11-2.61,1.11c-.57,0-1.1-.12-1.58-.36s-.92-.59-1.3-1.07v3.87h-.93v-9.84Zm3.71.71c-.8,0-1.48.28-2.02.84-.55.56-.82,1.26-.82,2.09,0,.55.12,1.04.37,1.48.24.44.59.78,1.05,1.04.46.26.94.38,1.44.38s.97-.13,1.4-.39c.44-.26.79-.62,1.05-1.08.26-.46.39-.95.39-1.45s-.13-1-.39-1.45c-.26-.46-.6-.81-1.04-1.07-.44-.25-.91-.38-1.43-.38Z"/>
    <path class="cls-3" d="m221.87,38.58h.98l2.48,5.55,2.4-5.55h.99l-4.3,9.84h-.98l1.39-3.18-2.96-6.66Z"/>
    <path class="cls-3" d="m229.92,38.58h6.05v7.2h-.93v-6.33h-4.19v6.33h-.93v-7.2Z"/>
    <path class="cls-3" d="m238.03,38.58h6.05v7.2h-.93v-6.33h-4.19v6.33h-.93v-7.2Z"/>
    <path class="cls-3" d="m253.32,38.58v7.2h-.91v-1.24c-.39.47-.82.83-1.31,1.07s-1.01.36-1.59.36c-1.02,0-1.89-.37-2.61-1.11-.72-.74-1.08-1.64-1.08-2.7s.36-1.93,1.09-2.66c.73-.74,1.61-1.11,2.63-1.11.59,0,1.13.13,1.61.38s.9.63,1.26,1.13v-1.32h.91Zm-3.71.71c-.52,0-.99.13-1.43.38-.44.25-.78.61-1.04,1.07-.26.46-.39.94-.39,1.45s.13.99.39,1.45c.26.46.61.82,1.05,1.08.44.26.91.39,1.41.39s.99-.13,1.44-.38.8-.6,1.05-1.04c.24-.44.37-.93.37-1.48,0-.83-.27-1.53-.82-2.09-.55-.56-1.22-.84-2.03-.84Z"/>
    <path class="cls-3" d="m259.16,38.58h6.05v7.2h-.93v-6.33h-4.19v6.33h-.93v-7.2Z"/>
    <path class="cls-3" d="m270.68,38.39c1.11,0,2.03.4,2.76,1.21.66.73,1,1.6,1,2.6s-.35,1.89-1.05,2.64c-.7.75-1.6,1.13-2.7,1.13s-2.01-.38-2.71-1.13c-.7-.75-1.05-1.63-1.05-2.64s.33-1.86.99-2.6c.73-.81,1.65-1.21,2.77-1.21Zm0,.91c-.77,0-1.43.28-1.99.85s-.83,1.26-.83,2.07c0,.52.13,1.01.38,1.46.25.45.59.8,1.02,1.04s.9.37,1.42.37.99-.12,1.42-.37c.43-.25.77-.59,1.02-1.04.25-.45.38-.94.38-1.46,0-.81-.28-1.5-.83-2.07s-1.22-.85-1.98-.85Z"/>
    <path class="cls-3" d="m282.26,45.78h-.99l-2.41-5.25-2.39,5.25h-.99l3.3-7.2h.17l3.31,7.2Z"/>
    <path class="cls-3" d="m288.79,42.31h-4.19v3.47h-.93v-7.2h.93v2.86h4.19v-2.86h.93v7.2h-.93v-3.47Z"/>
    <path class="cls-3" d="m295.19,38.39c1.11,0,2.03.4,2.76,1.21.66.73,1,1.6,1,2.6s-.35,1.89-1.05,2.64c-.7.75-1.6,1.13-2.7,1.13s-2.01-.38-2.71-1.13c-.7-.75-1.05-1.63-1.05-2.64s.33-1.86.99-2.6c.73-.81,1.65-1.21,2.77-1.21Zm0,.91c-.77,0-1.43.28-1.99.85s-.83,1.26-.83,2.07c0,.52.13,1.01.38,1.46.25.45.59.8,1.02,1.04s.9.37,1.42.37.99-.12,1.42-.37c.43-.25.77-.59,1.02-1.04.25-.45.38-.94.38-1.46,0-.81-.28-1.5-.83-2.07s-1.22-.85-1.98-.85Z"/>
    <path class="cls-3" d="m301.59,39.4v6.39h-.93v-7.2h3.64v.81h-2.71Z"/>
    <path class="cls-3" d="m308.97,38.39c1.11,0,2.03.4,2.76,1.21.66.73,1,1.6,1,2.6s-.35,1.89-1.05,2.64c-.7.75-1.6,1.13-2.7,1.13s-2.01-.38-2.71-1.13c-.7-.75-1.05-1.63-1.05-2.64s.33-1.86.99-2.6c.73-.81,1.65-1.21,2.77-1.21Zm0,.91c-.77,0-1.43.28-1.99.85s-.83,1.26-.83,2.07c0,.52.13,1.01.38,1.46.25.45.59.8,1.02,1.04s.9.37,1.42.37.99-.12,1.42-.37c.43-.25.77-.59,1.02-1.04.25-.45.38-.94.38-1.46,0-.81-.28-1.5-.83-2.07s-1.22-.85-1.98-.85Z"/>
    <path class="cls-3" d="m324.93,45.78h-6.73v-7.2h.93v6.33h4.19v-6.33h.93v6.33h1.56v2.01h-.87v-1.14Z"/>
    <path class="cls-3" d="m327.97,38.58v5.33l5.29-5.33h.07v7.2h-.93v-5.28l-5.25,5.28h-.11v-7.2h.93Z"/>
    <path class="cls-3" d="m335.4,38.58h.93v3.03l3.34-3.03h1.29l-3.66,3.3,3.94,3.91h-1.31l-3.31-3.33-.29.26v3.07h-.93v-7.2Z"/>
    <path class="cls-3" d="m348.31,45.78h-.99l-2.41-5.25-2.39,5.25h-.99l3.3-7.2h.17l3.31,7.2Z"/>
    <path class="cls-3" d="m356.9,38.58v7.2h-.91v-1.24c-.39.47-.82.83-1.31,1.07s-1.01.36-1.59.36c-1.02,0-1.89-.37-2.61-1.11-.72-.74-1.08-1.64-1.08-2.7s.36-1.93,1.09-2.66c.73-.74,1.61-1.11,2.63-1.11.59,0,1.13.13,1.61.38s.9.63,1.26,1.13v-1.32h.91Zm-3.71.71c-.52,0-.99.13-1.43.38-.44.25-.78.61-1.04,1.07-.26.46-.39.94-.39,1.45s.13.99.39,1.45c.26.46.61.82,1.05,1.08.44.26.91.39,1.41.39s.99-.13,1.44-.38.8-.6,1.05-1.04c.24-.44.37-.93.37-1.48,0-.83-.27-1.53-.82-2.09-.55-.56-1.22-.84-2.03-.84Z"/>
  </g>
  <g class="cls-2">
    <g>
      <path class="cls-3" d="m105.43.85h4.92v8.82l6.94-8.82h5.85l-8.93,11.42,9.8,14.16h-5.77l-7.89-11.36v11.36h-4.92V.85Z"/>
      <path class="cls-3" d="m148.92.21c3.62,0,6.73,1.31,9.33,3.93,2.6,2.62,3.91,5.81,3.91,9.58s-1.28,6.89-3.85,9.48c-2.57,2.58-5.69,3.88-9.35,3.88s-7.03-1.33-9.57-3.98-3.81-5.81-3.81-9.46c0-2.45.59-4.69,1.77-6.75,1.18-2.05,2.81-3.68,4.88-4.88,2.07-1.2,4.3-1.8,6.69-1.8Zm-.05,4.76c-2.37,0-4.36.82-5.97,2.47-1.61,1.65-2.42,3.74-2.42,6.28,0,2.83,1.02,5.07,3.05,6.71,1.58,1.29,3.39,1.93,5.43,1.93,2.31,0,4.28-.83,5.9-2.5,1.62-1.67,2.44-3.73,2.44-6.17s-.82-4.49-2.45-6.18c-1.64-1.69-3.63-2.53-5.97-2.53Z"/>
      <path class="cls-3" d="m176.1.85h4.94v9.65h8.54V.85h4.92v25.58h-4.92v-11.21h-8.54v11.21h-4.94V.85Z"/>
      <path class="cls-3" d="m233.21,5.34l-3.41,3.25c-2.32-2.45-4.92-3.67-7.82-3.67-2.44,0-4.5.84-6.18,2.51-1.67,1.67-2.51,3.73-2.51,6.18,0,1.71.37,3.22,1.11,4.54.74,1.32,1.79,2.36,3.14,3.12,1.36.75,2.86,1.13,4.52,1.13,1.41,0,2.7-.26,3.87-.79,1.17-.53,2.46-1.49,3.86-2.88l3.3,3.44c-1.89,1.84-3.67,3.12-5.36,3.84-1.68.71-3.6,1.07-5.76,1.07-3.98,0-7.23-1.26-9.76-3.78-2.53-2.52-3.8-5.75-3.8-9.69,0-2.55.58-4.82,1.73-6.8,1.15-1.98,2.81-3.58,4.96-4.78s4.47-1.81,6.95-1.81c2.11,0,4.14.45,6.09,1.34s3.64,2.16,5.05,3.8Z"/>
      <path class="cls-3" d="m244.32.85h14.14v4.8h-4.66v20.78h-4.94V5.65h-4.54V.85Z"/>
      <path class="cls-3" d="m278.96.85h4.94l9.84,25.58h-5.06l-2-5.27h-10.44l-2.08,5.27h-5.06l9.86-25.58Zm2.5,6.78l-3.43,8.78h6.84l-3.41-8.78Z"/>
      <path class="cls-3" d="m323.42,26.43l-7.08-18.81-7.2,18.81h-5.16l9.87-25.58h4.94l9.84,25.58h-5.2Z"/>
      <path class="cls-3" d="m340.92,26.43V.85h4.87v9.65h1.06c2.03,0,3.72.23,5.07.7,1.35.47,2.52,1.36,3.5,2.68.98,1.32,1.48,2.9,1.48,4.76,0,1.75-.42,3.23-1.27,4.45s-1.83,2.08-2.95,2.58c-1.12.5-2.65.76-4.6.76h-7.16Zm4.87-11.58v6.94h1.22c2.02,0,3.37-.25,4.05-.75s1.03-1.35,1.03-2.56c0-2.42-1.76-3.63-5.29-3.63h-1.01Z"/>
    </g>
    <rect class="cls-1" x="5.05" y=".21" width="19.31" height="26.86" rx="3.35" ry="3.35"/>
    <rect class="cls-3" x="31.85" y=".21" width="26.86" height="26.86" rx="3.35" ry="3.35"/>
    <circle class="cls-4" cx="78.64" cy="13.64" r="13.43"/>
  </g>
</svg>