<svg width="40" height="40" viewBox="0 0 40 40" fill="none" xmlns="http://www.w3.org/2000/svg">
<g clip-path="url(#clip0_306_16077)">
<path d="M0 0H60V40H0V0Z" fill="#00AFCA"/>
<path d="M22.6008 22.2352C25.5731 22.2352 27.9828 19.8256 27.9828 16.8532C27.9828 13.8808 25.5731 11.4712 22.6008 11.4712C19.6284 11.4712 17.2188 13.8808 17.2188 16.8532C17.2188 19.8256 19.6284 22.2352 22.6008 22.2352Z" fill="#FEC50C"/>
<path d="M22.6197 10.7372C22.9397 10.7332 23.0597 10.5332 23.0597 10.2932C23.0597 9.97322 22.6197 8.44922 22.6197 8.44922C22.6197 8.44922 22.1797 9.97322 22.1797 10.2932C22.1797 10.5332 22.2997 10.7372 22.6197 10.7372Z" fill="#FEC50C"/>
<path d="M28.7354 16.8532C28.7394 17.1732 28.9394 17.2932 29.1794 17.2932C29.4994 17.2932 31.0234 16.8532 31.0234 16.8532C31.0234 16.8532 29.4994 16.4132 29.1794 16.4132C28.9394 16.4132 28.7354 16.5332 28.7354 16.8532Z" fill="#FEC50C"/>
<path d="M22.6186 22.9692C22.2986 22.9732 22.1786 23.1732 22.1786 23.4132C22.1786 23.7332 22.6186 25.2572 22.6186 25.2572C22.6186 25.2572 23.0586 23.7332 23.0586 23.4132C23.0586 23.1732 22.9386 22.9692 22.6186 22.9692Z" fill="#FEC50C"/>
<path d="M16.5028 16.8532C16.4988 16.5332 16.2988 16.4132 16.0588 16.4132C15.7388 16.4132 14.2148 16.8532 14.2148 16.8532C14.2148 16.8532 15.7388 17.2932 16.0588 17.2932C16.2988 17.2932 16.5028 17.1732 16.5028 16.8532Z" fill="#FEC50C"/>
<path d="M24.9411 11.2031C25.2383 11.3219 25.4257 11.183 25.5175 10.9613C25.64 10.6657 25.8167 9.08928 25.8167 9.08928C25.8167 9.08928 24.8269 10.3289 24.7045 10.6245C24.6126 10.8463 24.6454 11.0807 24.9411 11.2031Z" fill="#FEC50C"/>
<path d="M28.249 19.194C28.1303 19.4912 28.2691 19.6786 28.4909 19.7704C28.7865 19.8929 30.3629 20.0696 30.3629 20.0696C30.3629 20.0696 29.1233 19.0799 28.8276 18.9574C28.6059 18.8656 28.3715 18.8984 28.249 19.194Z" fill="#FEC50C"/>
<path d="M20.2581 22.5039C19.961 22.3851 19.7736 22.524 19.6817 22.7457C19.5593 23.0413 19.3826 24.6177 19.3826 24.6177C19.3826 24.6177 20.3723 23.3781 20.4947 23.0825C20.5866 22.8607 20.5538 22.6263 20.2581 22.5039Z" fill="#FEC50C"/>
<path d="M16.9502 14.513C17.0689 14.2158 16.9301 14.0284 16.7084 13.9366C16.4127 13.8141 14.8363 13.6374 14.8363 13.6374C14.8363 13.6374 16.076 14.6272 16.3716 14.7496C16.5933 14.8415 16.8277 14.8087 16.9502 14.513Z" fill="#FEC50C"/>
<path d="M26.9472 12.5286C27.1763 12.752 27.4025 12.6955 27.5723 12.5258C27.7985 12.2995 28.565 10.9107 28.565 10.9107C28.565 10.9107 27.1763 11.6772 26.95 11.9035C26.7803 12.0732 26.7209 12.3023 26.9472 12.5286Z" fill="#FEC50C"/>
<path d="M26.946 21.1776C26.7226 21.4067 26.7791 21.633 26.9488 21.8027C27.1751 22.029 28.5639 22.7955 28.5639 22.7955C28.5639 22.7955 27.7974 21.4067 27.5711 21.1805C27.4014 21.0108 27.1723 20.9514 26.946 21.1776Z" fill="#FEC50C"/>
<path d="M18.295 21.1779C18.0659 20.9545 17.8396 21.0111 17.6699 21.1808C17.4437 21.407 16.6772 22.7958 16.6772 22.7958C16.6772 22.7958 18.0659 22.0293 18.2922 21.803C18.4619 21.6333 18.5213 21.4042 18.295 21.1779Z" fill="#FEC50C"/>
<path d="M18.2962 12.5284C18.5196 12.2993 18.4631 12.073 18.2933 11.9033C18.0671 11.6771 16.6783 10.9106 16.6783 10.9106C16.6783 10.9106 17.4448 12.2993 17.6711 12.5256C17.8408 12.6953 18.0699 12.7547 18.2962 12.5284Z" fill="#FEC50C"/>
<path d="M28.2497 14.5126C28.3759 14.8067 28.6066 14.841 28.8283 14.7492C29.124 14.6267 30.3636 13.637 30.3636 13.637C30.3636 13.637 28.7872 13.8137 28.4916 13.9361C28.2698 14.028 28.1273 14.2169 28.2497 14.5126Z" fill="#FEC50C"/>
<path d="M24.9404 22.5033C24.6463 22.6294 24.612 22.8601 24.7039 23.0819C24.8263 23.3775 25.816 24.6171 25.816 24.6171C25.816 24.6171 25.6393 23.0407 25.5169 22.7451C25.425 22.5234 25.2361 22.3808 24.9404 22.5033Z" fill="#FEC50C"/>
<path d="M16.9492 19.1935C16.8231 18.8994 16.5924 18.8651 16.3707 18.9569C16.075 19.0794 14.8354 20.0691 14.8354 20.0691C14.8354 20.0691 16.4118 19.8924 16.7074 19.7699C16.9291 19.6781 17.0717 19.4891 16.9492 19.1935Z" fill="#FEC50C"/>
<path d="M20.2585 11.2028C20.5526 11.0766 20.587 10.8459 20.4951 10.6242C20.3727 10.3286 19.3829 9.08894 19.3829 9.08894C19.3829 9.08894 19.5597 10.6653 19.6821 10.961C19.774 11.1827 19.9629 11.3252 20.2585 11.2028Z" fill="#FEC50C"/>
<path d="M23.7899 10.8543C24.1045 10.9128 24.2612 10.74 24.308 10.5046C24.3705 10.1908 24.2362 8.61022 24.2362 8.61022C24.2362 8.61022 23.5074 10.0191 23.4449 10.333C23.3981 10.5683 23.476 10.7918 23.7899 10.8543Z" fill="#FEC50C"/>
<path d="M28.592 18.0457C28.5335 18.3603 28.7062 18.517 28.9416 18.5639C29.2555 18.6263 30.836 18.4921 30.836 18.4921C30.836 18.4921 29.4272 17.7632 29.1133 17.7008C28.8779 17.6539 28.6544 17.7318 28.592 18.0457Z" fill="#FEC50C"/>
<path d="M21.4015 22.8512C21.0869 22.7927 20.9302 22.9655 20.8834 23.2009C20.8209 23.5147 20.9552 25.0953 20.9552 25.0953C20.9552 25.0953 21.684 23.6864 21.7465 23.3726C21.7933 23.1372 21.7154 22.9137 21.4015 22.8512Z" fill="#FEC50C"/>
<path d="M16.5955 15.6598C16.654 15.3452 16.4813 15.1885 16.2459 15.1416C15.932 15.0792 14.3515 15.2134 14.3515 15.2134C14.3515 15.2134 15.7603 15.9423 16.0742 16.0047C16.3096 16.0516 16.5331 15.9737 16.5955 15.6598Z" fill="#FEC50C"/>
<path d="M25.9736 11.7675C26.2419 11.9419 26.4528 11.8423 26.5861 11.6427C26.7639 11.3767 27.2448 9.86506 27.2448 9.86506C27.2448 9.86506 26.0322 10.8878 25.8544 11.1538C25.7211 11.3534 25.7075 11.5897 25.9736 11.7675Z" fill="#FEC50C"/>
<path d="M27.6617 20.251C27.4873 20.5192 27.5869 20.7301 27.7865 20.8635C28.0525 21.0413 29.5641 21.5221 29.5641 21.5221C29.5641 21.5221 28.5414 20.3096 28.2754 20.1318C28.0758 19.9984 27.8395 19.9849 27.6617 20.251Z" fill="#FEC50C"/>
<path d="M19.1787 21.9381C18.9104 21.7637 18.6996 21.8633 18.5662 22.0628C18.3884 22.3289 17.9076 23.8405 17.9076 23.8405C17.9076 23.8405 19.1201 22.8178 19.2979 22.5517C19.4312 22.3522 19.4448 22.1159 19.1787 21.9381Z" fill="#FEC50C"/>
<path d="M17.4906 13.4551C17.6651 13.1868 17.5654 12.9759 17.3659 12.8426C17.0998 12.6648 15.5882 12.184 15.5882 12.184C15.5882 12.184 16.6109 13.3965 16.877 13.5743C17.0765 13.7076 17.3128 13.7212 17.4906 13.4551Z" fill="#FEC50C"/>
<path d="M27.6819 13.4554C27.863 13.7192 28.096 13.7079 28.2955 13.5745C28.5616 13.3967 29.5843 12.1842 29.5843 12.1842C29.5843 12.1842 28.0727 12.665 27.8066 12.8428C27.6071 12.9762 27.5041 13.1893 27.6819 13.4554Z" fill="#FEC50C"/>
<path d="M25.9917 21.9382C25.7278 22.1193 25.7392 22.3523 25.8725 22.5519C26.0503 22.8179 27.2628 23.8406 27.2628 23.8406C27.2628 23.8406 26.782 22.329 26.6042 22.063C26.4709 21.8634 26.2577 21.7605 25.9917 21.9382Z" fill="#FEC50C"/>
<path d="M17.5095 20.2507C17.3284 19.9869 17.0954 19.9982 16.8959 20.1315C16.6298 20.3093 15.6071 21.5218 15.6071 21.5218C15.6071 21.5218 17.1187 21.041 17.3848 20.8632C17.5843 20.7299 17.6873 20.5168 17.5095 20.2507Z" fill="#FEC50C"/>
<path d="M19.1953 11.7677C19.4592 11.5866 19.4479 11.3536 19.3145 11.1541C19.1367 10.888 17.9242 9.86529 17.9242 9.86529C17.9242 9.86529 18.405 11.3769 18.5828 11.643C18.7162 11.8425 18.9293 11.9455 19.1953 11.7677Z" fill="#FEC50C"/>
<path d="M28.5997 15.6596C28.6661 15.9727 28.8857 16.0514 29.121 16.0045C29.4349 15.9421 30.8438 15.2133 30.8438 15.2133C30.8438 15.2133 29.2632 15.079 28.9494 15.1415C28.714 15.1883 28.5373 15.3458 28.5997 15.6596Z" fill="#FEC50C"/>
<path d="M23.7941 22.851C23.481 22.9174 23.4023 23.137 23.4492 23.3724C23.5116 23.6862 24.2405 25.0951 24.2405 25.0951C24.2405 25.0951 24.3747 23.5145 24.3123 23.2007C24.2654 22.9653 24.1079 22.7886 23.7941 22.851Z" fill="#FEC50C"/>
<path d="M16.6036 18.0459C16.5373 17.7328 16.3177 17.6541 16.0823 17.701C15.7685 17.7634 14.3596 18.4923 14.3596 18.4923C14.3596 18.4923 15.9402 18.6265 16.254 18.5641C16.4894 18.5172 16.6661 18.3597 16.6036 18.0459Z" fill="#FEC50C"/>
<path d="M21.4054 10.8545C21.7184 10.7881 21.7971 10.5685 21.7503 10.3331C21.6879 10.0193 20.959 8.61042 20.959 8.61042C20.959 8.61042 20.8248 10.191 20.8872 10.5048C20.934 10.7402 21.0915 10.9169 21.4054 10.8545Z" fill="#FEC50C"/>
<path d="M21.6417 28.5116C21.4977 28.5196 21.3577 28.5383 21.2204 28.5823C21.0324 28.6076 20.8524 28.6729 20.6657 28.7036L20.5911 28.7156L20.4657 28.7276C20.4737 28.7623 20.4791 28.7969 20.4791 28.8316C20.4791 28.8676 20.4751 28.9023 20.4657 28.9316C20.4577 28.9596 20.4324 28.9943 20.4124 29.0156C20.3857 29.0449 20.3577 29.0703 20.3244 29.0863C20.2924 29.1023 20.2564 29.1089 20.2204 29.1116C20.1844 29.1129 20.1471 29.1116 20.1124 29.0983C20.0764 29.0863 20.0431 29.0636 20.0124 29.0369C19.9751 29.0463 19.9364 29.0529 19.9004 29.0569C19.8631 29.0609 19.8284 29.0609 19.7951 29.0569C19.7577 29.0463 19.7191 29.0343 19.6831 29.0196C19.6468 29.0046 19.612 28.9863 19.5791 28.9649C19.4431 29.0449 19.2911 29.1209 19.2084 29.2609C19.1617 29.3249 19.1524 29.3983 19.1417 29.4743C19.1351 29.5676 19.1591 29.6663 19.1991 29.7529C19.2137 29.7783 19.2257 29.6609 19.2711 29.6449C19.3471 29.5823 19.4417 29.5369 19.5377 29.5116C19.6191 29.4703 19.6084 29.5143 19.5751 29.5783C19.5671 29.6116 19.5217 29.7383 19.5831 29.6743C19.8537 29.5543 20.1537 29.5303 20.4457 29.5076C20.8697 29.4636 21.2951 29.4543 21.7204 29.4489C22.1204 29.4543 22.5204 29.4596 22.9204 29.4743C23.1111 29.4796 23.3031 29.5223 23.4911 29.4903C23.5364 29.4783 23.6071 29.4756 23.6337 29.4489C23.5484 29.3996 23.4484 29.3983 23.3537 29.3863H22.5911C22.3791 29.3649 22.1577 29.3623 21.9577 29.2823C21.9044 29.2609 21.8551 29.2103 21.8044 29.2649C21.7284 29.2916 21.6471 29.3103 21.5671 29.3156C21.4271 29.3263 21.2871 29.2969 21.1577 29.2449C21.2511 29.1156 21.3631 29.0023 21.4657 28.8823C21.3831 28.8689 21.3031 28.8516 21.2204 28.8316C21.3657 28.7316 21.5004 28.6183 21.6417 28.5116Z" fill="#FEC50C"/>
<path d="M27.8704 29.8934C27.5806 30.0674 27.3594 29.7589 27.1171 29.6664C26.9441 29.7603 26.928 30.0747 26.7663 30.2236C26.5729 30.4436 26.3359 30.1621 26.3536 29.945C26.1223 30.1399 26.0053 30.5818 25.6313 30.5228C25.4541 30.3782 25.3225 30.0748 25.1871 30.4202C25.0767 30.5891 24.7827 30.8294 24.6304 30.5744C24.5833 30.3492 24.4704 30.0844 24.3479 30.4421C24.2638 30.6951 23.9939 30.8812 23.7327 30.7704C23.5898 30.6536 23.8473 30.2214 23.6654 30.2521C23.3934 30.4319 23.2353 30.8784 22.8557 30.8427C22.7083 30.6772 22.9451 30.3969 22.7835 30.2133C22.5927 30.4582 22.3809 30.8168 22.0509 30.8427C21.8913 30.7134 22.0571 30.3426 21.9553 30.2878C21.6166 30.4909 21.2592 30.8529 20.8333 30.7395C20.9993 30.1046 21.6929 29.8818 22.2762 29.8323C23.2797 29.709 24.3355 29.9358 25.3011 29.5735C25.4571 29.4786 25.8351 29.344 25.7005 29.1238C25.5813 28.9499 26.0107 29.0179 26.0519 28.8148C26.0264 28.5576 26.249 28.593 26.4665 28.5705C27.4415 28.5284 28.4047 28.7338 29.3768 28.7687C29.4503 29.2424 28.9248 29.575 28.5018 29.4287C28.2997 29.4614 27.9967 28.9641 28.0561 29.3259C28.0154 29.5158 28.0439 29.7666 27.8704 29.8934M19.5744 28.9235C19.8001 29.1301 19.9584 28.8846 20.1694 28.7949C20.8771 28.5515 21.4945 28.1261 22.1032 27.7011C22.472 27.3959 22.7918 27.0001 23.2871 26.9011C24.2533 26.609 25.2804 26.6444 26.2503 26.3748C26.9889 25.3636 28.2433 25.0029 29.2942 24.4216C29.5301 24.3483 29.6213 24.1541 29.6967 23.9397C30.0978 23.3065 30.6442 22.7454 31.2905 22.3622C31.5962 22.1951 31.961 22.0989 32.3072 22.1753C32.2824 22.5876 32.0459 22.953 31.7603 23.2381C31.994 23.233 32.1948 23.0853 32.431 23.0936C32.5119 23.5168 32.055 23.7382 31.8119 24.0016C31.9473 24.0331 32.466 24.0724 32.1833 24.208C31.8231 24.458 31.4117 24.6296 31.0792 24.92C31.386 24.9751 31.421 25.0403 31.109 25.1512C30.9401 25.2657 30.6154 25.3057 30.584 25.5287C30.8157 25.6712 30.4772 25.8126 30.3467 25.8589C30.097 25.9171 29.8347 26.0255 30.1664 26.2152C30.0409 26.4047 29.7718 26.4452 29.5521 26.4264C29.6188 26.6412 29.7153 26.8816 29.4365 26.9763C28.8115 27.4487 28.0781 27.7924 27.2925 27.871C28.2739 27.9464 29.2847 27.7643 30.1233 27.2306C30.2341 27.0996 30.8146 26.959 30.4899 26.8489C30.337 26.7853 30.0093 26.7146 29.9871 26.598C30.4413 26.3178 31.0137 26.4175 31.5023 26.251C31.5149 26.0928 31.1306 26.1368 30.9873 26.1008C30.6456 26.0728 30.6657 25.9856 30.9951 25.9533C31.412 25.8429 31.8842 25.8212 32.2349 25.5494C31.9493 25.4171 31.5902 25.5335 31.2856 25.4255C31.802 25.1995 32.4113 25.1768 32.8746 24.8374C33.0857 24.6026 32.6042 24.6759 32.4639 24.6816C32.1779 24.7314 32.0457 24.5945 32.3707 24.4757C32.9255 24.0666 33.628 23.8009 34.0177 23.2078C34.11 23.075 34.235 22.675 33.9406 22.8189C33.5534 22.9477 33.2127 23.383 32.7715 23.2483C33.6408 22.5746 34.468 21.8075 35.0621 20.8751C35.0929 20.6062 34.6707 20.5771 34.5609 20.7882C34.0023 21.3264 33.4969 21.9616 32.7818 22.299C33.4666 21.638 34.0328 20.8554 34.5268 20.0442C34.6327 19.8029 34.9174 19.5127 34.7629 19.2448C34.5139 19.0387 34.2024 19.2274 34.073 19.474C33.6388 20.0408 33.3091 20.7024 32.7508 21.164C33.2396 20.2312 33.7457 19.2382 33.758 18.1622C33.7565 17.9407 33.712 17.6144 33.4112 17.6558C33.1727 17.6986 33.2294 18.0555 33.1311 18.236C32.9146 18.9711 32.813 19.7672 32.3691 20.4108C32.4689 19.8135 32.6437 19.1908 32.5095 18.5876C32.4469 18.318 32.0115 18.434 32.0676 18.7008C31.5475 21.3352 29.7799 23.6392 27.468 24.972C26.4095 25.5709 25.2271 25.957 24.0242 26.1321C23.7006 26.2029 23.3506 26.1614 23.0413 26.2717C22.2919 26.8464 21.8381 27.808 20.8892 28.1091C20.4639 28.3204 19.9094 28.3633 19.6053 28.7584C19.579 28.8089 19.5733 28.8675 19.5744 28.9235Z" fill="#FEC50C"/>
<path d="M22.4147 26.2509C22.2747 26.5051 22.1923 26.7973 22.0123 27.0248C21.4707 26.532 20.6855 26.5483 19.9984 26.5155C19.4314 26.4852 18.8147 26.4329 18.3759 26.0284C17.9144 25.6503 17.5376 25.1595 17.0218 24.8527C16.5511 24.7247 16.0765 24.5645 15.698 24.2419C14.8892 23.5826 14.426 22.6044 13.6357 21.9245C13.485 21.7762 13.3074 21.6613 13.1386 21.5355C12.9782 21.5745 13.0508 21.9207 12.8545 21.7443C12.7477 21.6683 12.4806 21.6609 12.4565 21.767C12.6981 22.0854 12.94 22.449 12.9735 22.8562C12.8087 22.8731 12.5157 22.8214 12.434 22.8828C12.6528 23.2108 12.9334 23.5017 13.2521 23.7333C13.0992 23.7579 12.798 23.7445 12.7394 23.8061C13.0557 24.0639 13.395 24.3275 13.8092 24.3937C13.894 24.5055 13.6852 24.7213 13.8608 24.8167C13.9626 24.8583 14.2986 24.9279 14.0672 25.0437C13.9084 25.1507 13.9673 25.4001 14.1704 25.3945C14.2988 25.4601 14.5871 25.4762 14.6096 25.5897C14.4958 25.7055 14.1417 25.8429 14.4431 25.9513C14.7247 26.1075 15.0458 26.2089 15.3673 26.22C15.206 26.3558 15.0072 26.4328 14.8411 26.5605C15.5831 26.9956 16.4056 27.2817 17.2184 27.5573C17.542 27.6654 17.8694 27.7662 18.2048 27.8297C17.2301 27.7734 16.288 27.4849 15.4002 27.0899C14.9401 26.8881 14.4768 26.6931 14.0053 26.5193C14.212 26.4117 14.4512 26.3854 14.6656 26.2923C14.2205 26.2031 13.7342 26.1739 13.343 25.9292C13.403 25.8222 13.6303 25.8171 13.756 25.7627C13.9924 25.706 14.1391 25.6373 13.8057 25.6167C13.4695 25.5255 13.0839 25.5665 12.7876 25.3636C12.8067 25.242 13.1168 25.2844 13.2431 25.2319C13.4021 25.2046 13.5789 25.1817 13.706 25.0747C13.1862 24.8592 12.5064 25.0119 12.0993 24.5529C12.0054 24.378 12.3908 24.5189 12.5006 24.4897C12.7795 24.4897 13.0793 24.5784 13.3449 24.4659C12.5875 24.1334 11.7763 23.8221 11.1987 23.2071C11.1346 23.1082 10.9424 22.8381 11.0974 22.8047C11.547 22.8642 11.8724 23.3548 12.3533 23.2785C12.4172 23.1923 12.0739 23.0512 11.9882 22.9281C11.2871 22.3265 10.6066 21.6736 10.1152 20.8855C10.0814 20.6223 10.4951 20.5829 10.604 20.7861C11.1402 21.3026 11.6246 21.9052 12.2924 22.2578C12.5294 22.3727 12.1564 22.1218 12.1067 22.0308C11.4896 21.3142 10.9022 20.5574 10.4709 19.7135C10.3937 19.5614 10.2658 19.2861 10.4967 19.2051C10.7276 19.0894 10.9568 19.247 11.0738 19.4454C11.5275 20.0176 11.8614 20.6977 12.4265 21.1744C11.945 20.24 11.431 19.2565 11.4185 18.1813C11.4298 17.9729 11.4432 17.6576 11.7259 17.6661C11.9632 17.6301 11.9257 17.934 12.0035 18.0789C12.2373 18.8687 12.3393 19.7237 12.8084 20.4211C12.7048 19.8351 12.5522 19.2317 12.6536 18.636C12.6769 18.4404 12.8971 18.3812 13.0408 18.4995C13.157 18.7839 13.1812 19.1351 13.2871 19.4391C13.8895 21.4999 15.2421 23.3124 17.0048 24.5287C18.4564 25.5243 20.1792 26.1187 21.9376 26.2223C22.0964 26.2362 22.2558 26.241 22.4148 26.2507" fill="#FEC50C"/>
<path d="M20.1845 28.9831C20.2368 28.9831 20.2792 28.9407 20.2792 28.8884C20.2792 28.8362 20.2368 28.7938 20.1845 28.7938C20.1322 28.7938 20.0898 28.8362 20.0898 28.8884C20.0898 28.9407 20.1322 28.9831 20.1845 28.9831Z" fill="#FEC50C"/>
<path d="M20.1753 28.9119C20.1966 28.9119 20.2139 28.8946 20.2139 28.8733C20.2139 28.8519 20.1966 28.8347 20.1753 28.8347C20.154 28.8347 20.1367 28.8519 20.1367 28.8733C20.1367 28.8946 20.154 28.9119 20.1753 28.9119Z" fill="#FEC50C" stroke="#00AFCA" stroke-width="0.1905"/>
<path d="M4.79894 2.91712C4.79894 2.91712 4.41454 2.59408 4.28398 2.75612C4.07398 3.01672 4.92958 4.31484 4.92958 4.77196C4.92958 5.52232 4.4289 5.72636 3.81066 5.83352C3.39582 5.90544 2.7203 5.80344 2.7203 5.80344C2.8475 5.63252 2.93022 5.58216 3.14454 5.56852C2.90594 5.44464 2.66298 5.17571 2.66298 4.75716C2.66298 4.11164 2.9287 3.84556 2.9287 3.11784C2.9287 2.71412 2.59766 2.2002 2.59766 2.2002C3.18282 2.25876 3.47282 2.80056 3.30782 3.23356C3.40094 3.24696 3.4855 3.22596 3.55814 3.15716C3.60094 3.27716 3.53334 3.41648 3.44282 3.53652C3.51574 3.57548 3.5693 3.55212 3.68546 3.52812C3.67442 3.6518 3.60034 3.78316 3.41906 3.90684C3.9451 3.77024 4.26878 4.13688 4.26878 4.52072C4.26878 4.81064 4.06562 5.01844 3.86702 5.01844C3.80286 5.01844 3.70858 4.992 3.65542 4.95228C3.6179 5.03208 3.63722 5.13888 3.67582 5.21868C3.5303 5.1802 3.4379 5.09376 3.50366 4.91384C3.39186 4.90356 3.30294 4.8658 3.24246 4.79384C3.30374 4.71532 3.39674 4.67011 3.50366 4.6738C3.42226 4.5058 3.51298 4.4118 3.64518 4.33556C3.64518 4.33556 3.5611 4.6738 3.77578 4.6738C3.8723 4.6738 3.96026 4.64236 3.96026 4.50008C3.96026 4.3762 3.85198 4.2046 3.60162 4.21552C3.3513 4.22644 3.14834 4.38812 3.14834 4.78776C3.14834 5.1564 3.4457 5.33976 3.83754 5.3516C4.19086 5.36251 4.45754 5.17112 4.45754 4.8066C4.45754 4.32148 3.75722 3.21568 3.75722 2.7834C3.75722 2.459 4.0489 2.27796 4.3343 2.27796C4.70438 2.27796 5.01662 2.6444 5.01662 2.6444L4.79922 2.917L4.79894 2.91712Z" fill="#FEC50C"/>
<path d="M4.87932 11.6858C4.87932 12.4966 4.1514 12.9133 3.5794 12.9133C2.80876 12.9133 2.39844 12.4526 2.39844 11.8494C2.39844 11.5075 2.46108 11.293 2.61872 10.9657C2.61872 10.9657 3.88992 8.3221 4.38484 7.29962C4.44656 7.1721 4.46648 7.0269 4.46648 6.8141C4.46648 6.48542 4.14768 6.21678 3.8134 6.20854C3.50868 6.20094 3.17668 6.49262 3.17668 6.82502C3.17668 7.22874 3.38612 7.40874 3.60116 7.40874C3.8658 7.40874 3.97124 7.29994 3.97124 7.11414C3.97124 6.98466 3.90872 6.92866 3.81884 6.92866C3.59188 6.92866 3.6556 7.23418 3.6556 7.23418C3.54288 7.2095 3.45024 7.0943 3.5032 6.95046C3.4176 6.93155 3.34035 6.88566 3.2828 6.81954C3.34364 6.76054 3.41344 6.71502 3.5032 6.69954C3.45004 6.52402 3.52108 6.4383 3.67464 6.40222C3.64364 6.4697 3.6426 6.53182 3.65288 6.59042C3.8946 6.52166 4.26512 6.63106 4.26512 7.04866C4.26512 7.46326 3.97736 7.81238 3.43788 7.72514C3.5662 7.7865 3.63148 7.91206 3.64468 8.05246C3.54668 8.0143 3.43788 8.00886 3.43788 8.00886C3.50096 8.12006 3.58856 8.21594 3.5848 8.43434C3.4848 8.38886 3.39188 8.30466 3.26372 8.35794C3.46492 8.75386 3.21772 9.29842 2.58888 9.42726C2.81904 9.15746 2.93172 8.86618 2.93172 8.57618C2.93172 7.63634 2.67052 7.47838 2.67052 6.82498C2.67052 6.55158 2.81104 6.25638 3.08956 6.05574V6.06666C2.90548 6.01734 2.78756 5.9267 2.71976 5.80354C3.14036 5.68426 3.75176 5.68646 4.08 5.81562C4.45736 5.85934 4.7208 6.14882 4.7984 6.29578C4.876 6.44258 5.02676 6.9739 4.7984 7.45226C4.5484 7.97578 3.36992 10.4747 3.00248 11.2602C2.92456 11.4268 2.87728 11.6035 2.87728 11.7948C2.87728 12.276 3.31808 12.444 3.56848 12.444C3.8678 12.444 4.17256 12.216 4.17256 11.9312C4.17256 11.7508 4.07456 11.6421 3.93308 11.6421C3.59476 11.6421 3.61532 11.9299 3.68276 12.1113C3.4722 12.0166 3.3498 11.8476 3.38344 11.6694C3.26424 11.653 3.15076 11.5965 3.04604 11.4784C3.12844 11.3744 3.22892 11.2957 3.38344 11.2929C3.31596 11.0165 3.50104 10.8995 3.68276 10.8347C3.62528 11.0376 3.58756 11.2711 3.93308 11.2711C4.18508 11.2711 4.3834 11.3148 4.49908 11.4785C4.50588 11.2602 4.52628 10.3983 4.52628 10.3983C4.54084 10.0743 4.09276 10.0836 3.80796 10.18C3.91544 9.80694 4.13588 9.60522 4.64604 9.6563C4.5222 9.6045 4.39024 9.48798 4.39024 9.2635C4.39032 8.95978 4.63672 8.6233 4.79848 8.52382L4.87936 11.6859L4.87932 11.6858Z" fill="#FEC50C"/>
<path d="M4.87932 14.1178C4.87932 13.307 4.1514 12.8903 3.5794 12.8903C2.80876 12.8903 2.39844 13.3511 2.39844 13.9542C2.39844 14.2961 2.46108 14.5107 2.61872 14.8379C2.61872 14.8379 3.88992 17.4815 4.38484 18.504C4.44656 18.6315 4.46648 18.7767 4.46648 18.9895C4.46648 19.3182 4.14768 19.5869 3.8134 19.5951C3.50868 19.6027 3.17668 19.311 3.17668 18.9786C3.17668 18.5749 3.38612 18.3949 3.60116 18.3949C3.8658 18.3949 3.97124 18.5037 3.97124 18.6895C3.97124 18.819 3.90872 18.875 3.81884 18.875C3.59188 18.875 3.6556 18.5695 3.6556 18.5695C3.54288 18.5941 3.45024 18.7093 3.5032 18.8532C3.4176 18.8721 3.34035 18.918 3.2828 18.9841C3.34364 19.0431 3.41344 19.0886 3.5032 19.1041C3.45004 19.2796 3.52108 19.3653 3.67464 19.4014C3.64364 19.3339 3.6426 19.2718 3.65288 19.2132C3.8946 19.282 4.26512 19.1726 4.26512 18.755C4.26512 18.3404 3.97736 17.9913 3.43788 18.0785C3.5662 18.0171 3.63148 17.8916 3.64468 17.7512C3.54668 17.7893 3.43788 17.7948 3.43788 17.7948C3.50096 17.6836 3.58856 17.5877 3.5848 17.3693C3.4848 17.4148 3.39188 17.499 3.26372 17.4457C3.46492 17.0498 3.21772 16.5052 2.58888 16.3764C2.81904 16.6462 2.93172 16.9375 2.93172 17.2275C2.93172 18.1673 2.67052 18.3253 2.67052 18.9787C2.67052 19.2521 2.81104 19.5473 3.08956 19.7479V19.737C2.90548 19.7863 2.78756 19.8769 2.71976 20.0001C3.14036 20.1194 3.75176 20.1172 4.08 19.988C4.45736 19.9443 4.7208 19.6548 4.7984 19.5079C4.876 19.3611 5.02676 18.8297 4.7984 18.3514C4.5484 17.8279 3.36992 15.329 3.00248 14.5435C2.92456 14.3769 2.87728 14.2001 2.87728 14.0088C2.87728 13.5276 3.31808 13.3596 3.56848 13.3596C3.8678 13.3596 4.17256 13.5876 4.17256 13.8724C4.17256 14.0529 4.07456 14.1615 3.93308 14.1615C3.59476 14.1615 3.61532 13.8737 3.68276 13.6924C3.4722 13.7871 3.3498 13.9561 3.38344 14.1343C3.26424 14.1506 3.15076 14.2071 3.04604 14.3252C3.12844 14.4292 3.22892 14.5079 3.38344 14.5107C3.31596 14.7872 3.50104 14.9041 3.68276 14.9689C3.62528 14.766 3.58756 14.5325 3.93308 14.5325C4.18508 14.5325 4.3834 14.4889 4.49908 14.3252C4.50588 14.5434 4.52628 15.4054 4.52628 15.4054C4.54084 15.7293 4.09276 15.7201 3.80796 15.6236C3.91544 15.9967 4.13588 16.1984 4.64604 16.1473C4.5222 16.1991 4.39024 16.3157 4.39024 16.5401C4.39032 16.8439 4.63672 17.1803 4.79848 17.2798L4.87936 14.1178L4.87932 14.1178Z" fill="#FEC50C"/>
<path d="M4.79872 2.91712C4.79872 2.91712 5.18312 2.59408 5.31368 2.75612C5.52368 3.01672 4.66808 4.31484 4.66808 4.77196C4.66808 5.52232 5.16876 5.72636 5.787 5.83352C6.20184 5.90544 6.87736 5.80344 6.87736 5.80344C6.75016 5.63252 6.66744 5.58216 6.45312 5.56852C6.69172 5.44464 6.93468 5.17571 6.93468 4.75716C6.93468 4.11164 6.66896 3.84556 6.66896 3.11784C6.66896 2.71412 7 2.2002 7 2.2002C6.41484 2.25876 6.12484 2.80056 6.28984 3.23356C6.19672 3.24696 6.11216 3.22596 6.03952 3.15716C5.99672 3.27716 6.06432 3.41648 6.15484 3.53652C6.08192 3.57548 6.02836 3.55212 5.9122 3.52812C5.92324 3.6518 5.99732 3.78316 6.1786 3.90684C5.65256 3.77024 5.32888 4.13688 5.32888 4.52072C5.32888 4.81064 5.53204 5.01844 5.73064 5.01844C5.7948 5.01844 5.88908 4.992 5.94224 4.95228C5.97976 5.03208 5.96044 5.13888 5.92184 5.21868C6.06736 5.1802 6.15976 5.09376 6.094 4.91384C6.2058 4.90356 6.29472 4.8658 6.3552 4.79384C6.29392 4.71532 6.20092 4.67011 6.094 4.6738C6.1754 4.5058 6.08468 4.4118 5.95248 4.33556C5.95248 4.33556 6.03656 4.6738 5.82188 4.6738C5.72536 4.6738 5.6374 4.64236 5.6374 4.50008C5.6374 4.3762 5.74568 4.2046 5.99604 4.21552C6.24636 4.22644 6.44932 4.38812 6.44932 4.78776C6.44932 5.1564 6.15196 5.33976 5.76012 5.3516C5.4068 5.36251 5.14012 5.17112 5.14012 4.8066C5.14012 4.32148 5.84044 3.21568 5.84044 2.7834C5.84044 2.459 5.54876 2.27796 5.26336 2.27796C4.89328 2.27796 4.58104 2.6444 4.58104 2.6444L4.79844 2.917L4.79872 2.91712Z" fill="#FEC50C"/>
<path d="M4.71834 11.6858C4.71834 12.4966 5.44626 12.9133 6.01826 12.9133C6.7889 12.9133 7.19922 12.4526 7.19922 11.8494C7.19922 11.5075 7.13658 11.293 6.97894 10.9657C6.97894 10.9657 5.70774 8.3221 5.21282 7.29962C5.1511 7.1721 5.13118 7.0269 5.13118 6.8141C5.13118 6.48542 5.44998 6.21678 5.78426 6.20854C6.08898 6.20094 6.42098 6.49262 6.42098 6.82502C6.42098 7.22874 6.21154 7.40874 5.9965 7.40874C5.73186 7.40874 5.62642 7.29994 5.62642 7.11414C5.62642 6.98466 5.68894 6.92866 5.77882 6.92866C6.00578 6.92866 5.94206 7.23418 5.94206 7.23418C6.05478 7.2095 6.14742 7.0943 6.09446 6.95046C6.18005 6.93155 6.25731 6.88566 6.31486 6.81954C6.25402 6.76054 6.18422 6.71502 6.09446 6.69954C6.14762 6.52402 6.07658 6.4383 5.92302 6.40222C5.95402 6.4697 5.95506 6.53182 5.94478 6.59042C5.70306 6.52166 5.33254 6.63106 5.33254 7.04866C5.33254 7.46326 5.6203 7.81238 6.15978 7.72514C6.03146 7.7865 5.96618 7.91206 5.95298 8.05246C6.05098 8.0143 6.15978 8.00886 6.15978 8.00886C6.0967 8.12006 6.0091 8.21594 6.01286 8.43434C6.11286 8.38886 6.20578 8.30466 6.33394 8.35794C6.13274 8.75386 6.37994 9.29842 7.00878 9.42726C6.77862 9.15746 6.66594 8.86618 6.66594 8.57618C6.66594 7.63634 6.92714 7.47838 6.92714 6.82498C6.92714 6.55158 6.78662 6.25638 6.5081 6.05574V6.06666C6.69218 6.01734 6.8101 5.9267 6.8779 5.80354C6.4573 5.68426 5.8459 5.68646 5.51766 5.81562C5.1403 5.85934 4.87686 6.14882 4.79926 6.29578C4.72166 6.44258 4.5709 6.9739 4.79926 7.45226C5.04926 7.97578 6.22774 10.4747 6.59518 11.2602C6.6731 11.4268 6.72038 11.6035 6.72038 11.7948C6.72038 12.276 6.27958 12.444 6.02918 12.444C5.72986 12.444 5.4251 12.216 5.4251 11.9312C5.4251 11.7508 5.5231 11.6421 5.66458 11.6421C6.0029 11.6421 5.98234 11.9299 5.9149 12.1113C6.12546 12.0166 6.24786 11.8476 6.21422 11.6694C6.33342 11.653 6.4469 11.5965 6.55162 11.4784C6.46922 11.3744 6.36874 11.2957 6.21422 11.2929C6.2817 11.0165 6.09662 10.8995 5.9149 10.8347C5.97238 11.0376 6.0101 11.2711 5.66458 11.2711C5.41258 11.2711 5.21426 11.3148 5.09858 11.4785C5.09178 11.2602 5.07138 10.3983 5.07138 10.3983C5.05682 10.0743 5.5049 10.0836 5.7897 10.18C5.68222 9.80694 5.46178 9.60522 4.95162 9.6563C5.07546 9.6045 5.20742 9.48798 5.20742 9.2635C5.20734 8.95978 4.96094 8.6233 4.79918 8.52382L4.7183 11.6859L4.71834 11.6858Z" fill="#FEC50C"/>
<path d="M4.71834 14.1178C4.71834 13.307 5.44626 12.8903 6.01826 12.8903C6.7889 12.8903 7.19922 13.3511 7.19922 13.9542C7.19922 14.2961 7.13658 14.5107 6.97894 14.8379C6.97894 14.8379 5.70774 17.4815 5.21282 18.504C5.1511 18.6315 5.13118 18.7767 5.13118 18.9895C5.13118 19.3182 5.44998 19.5869 5.78426 19.5951C6.08898 19.6027 6.42098 19.311 6.42098 18.9786C6.42098 18.5749 6.21154 18.3949 5.9965 18.3949C5.73186 18.3949 5.62642 18.5037 5.62642 18.6895C5.62642 18.819 5.68894 18.875 5.77882 18.875C6.00578 18.875 5.94206 18.5695 5.94206 18.5695C6.05478 18.5941 6.14742 18.7093 6.09446 18.8532C6.18005 18.8721 6.25731 18.918 6.31486 18.9841C6.25402 19.0431 6.18422 19.0886 6.09446 19.1041C6.14762 19.2796 6.07658 19.3653 5.92302 19.4014C5.95402 19.3339 5.95506 19.2718 5.94478 19.2132C5.70306 19.282 5.33254 19.1726 5.33254 18.755C5.33254 18.3404 5.6203 17.9913 6.15978 18.0785C6.03146 18.0171 5.96618 17.8916 5.95298 17.7512C6.05098 17.7893 6.15978 17.7948 6.15978 17.7948C6.0967 17.6836 6.0091 17.5877 6.01286 17.3693C6.11286 17.4148 6.20578 17.499 6.33394 17.4457C6.13274 17.0498 6.37994 16.5052 7.00878 16.3764C6.77862 16.6462 6.66594 16.9375 6.66594 17.2275C6.66594 18.1673 6.92714 18.3253 6.92714 18.9787C6.92714 19.2521 6.78662 19.5473 6.5081 19.7479V19.737C6.69218 19.7863 6.8101 19.8769 6.8779 20.0001C6.4573 20.1194 5.8459 20.1172 5.51766 19.988C5.1403 19.9443 4.87686 19.6548 4.79926 19.5079C4.72166 19.3611 4.5709 18.8297 4.79926 18.3514C5.04926 17.8279 6.22774 15.329 6.59518 14.5435C6.6731 14.3769 6.72038 14.2001 6.72038 14.0088C6.72038 13.5276 6.27958 13.3596 6.02918 13.3596C5.72986 13.3596 5.4251 13.5876 5.4251 13.8724C5.4251 14.0529 5.5231 14.1615 5.66458 14.1615C6.0029 14.1615 5.98234 13.8737 5.9149 13.6924C6.12546 13.7871 6.24786 13.9561 6.21422 14.1343C6.33342 14.1506 6.4469 14.2071 6.55162 14.3252C6.46922 14.4292 6.36874 14.5079 6.21422 14.5107C6.2817 14.7872 6.09662 14.9041 5.9149 14.9689C5.97238 14.766 6.0101 14.5325 5.66458 14.5325C5.41258 14.5325 5.21426 14.4889 5.09858 14.3252C5.09178 14.5434 5.07138 15.4054 5.07138 15.4054C5.05682 15.7293 5.5049 15.7201 5.7897 15.6236C5.68222 15.9967 5.46178 16.1984 4.95162 16.1473C5.07546 16.1991 5.20742 16.3157 5.20742 16.5401C5.20734 16.8439 4.96094 17.1803 4.79918 17.2798L4.7183 14.1178L4.71834 14.1178Z" fill="#FEC50C"/>
<path d="M4.79894 37.0833C4.79894 37.0833 4.41454 37.4064 4.28398 37.2443C4.07398 36.9837 4.92958 35.6856 4.92958 35.2285C4.92958 34.4781 4.4289 34.2741 3.81066 34.1669C3.39582 34.095 2.7203 34.197 2.7203 34.197C2.8475 34.3679 2.93022 34.4183 3.14454 34.4319C2.90594 34.5558 2.66298 34.8247 2.66298 35.2433C2.66298 35.8888 2.9287 36.1549 2.9287 36.8826C2.9287 37.2863 2.59766 37.8003 2.59766 37.8003C3.18282 37.7417 3.47282 37.1999 3.30782 36.7669C3.40094 36.7535 3.4855 36.7745 3.55814 36.8433C3.60094 36.7233 3.53334 36.584 3.44282 36.4639C3.51574 36.425 3.5693 36.4483 3.68546 36.4723C3.67442 36.3487 3.60034 36.2173 3.41906 36.0936C3.9451 36.2302 4.26878 35.8636 4.26878 35.4797C4.26878 35.1898 4.06562 34.982 3.86702 34.982C3.80286 34.982 3.70858 35.0085 3.65542 35.0482C3.6179 34.9684 3.63722 34.8616 3.67582 34.7818C3.5303 34.8203 3.4379 34.9067 3.50366 35.0866C3.39186 35.0969 3.30294 35.1347 3.24246 35.2066C3.30374 35.2851 3.39674 35.3303 3.50366 35.3267C3.42226 35.4947 3.51298 35.5887 3.64518 35.6649C3.64518 35.6649 3.5611 35.3267 3.77578 35.3267C3.8723 35.3267 3.96026 35.3581 3.96026 35.5004C3.96026 35.6243 3.85198 35.7959 3.60162 35.7849C3.3513 35.774 3.14834 35.6123 3.14834 35.2127C3.14834 34.8441 3.4457 34.6607 3.83754 34.6489C4.19086 34.6379 4.45754 34.8293 4.45754 35.1939C4.45754 35.679 3.75722 36.7848 3.75722 37.2171C3.75722 37.5415 4.0489 37.7225 4.3343 37.7225C4.70438 37.7225 5.01662 37.3561 5.01662 37.3561L4.79922 37.0835L4.79894 37.0833Z" fill="#FEC50C"/>
<path d="M4.87932 28.3146C4.87932 27.5038 4.1514 27.0871 3.5794 27.0871C2.80876 27.0871 2.39844 27.5479 2.39844 28.151C2.39844 28.493 2.46108 28.7075 2.61872 29.0347C2.61872 29.0347 3.88992 31.6784 4.38484 32.7008C4.44656 32.8284 4.46648 32.9736 4.46648 33.1864C4.46648 33.515 4.14768 33.7837 3.8134 33.7919C3.50868 33.7995 3.17668 33.5078 3.17668 33.1754C3.17668 32.7717 3.38612 32.5917 3.60116 32.5917C3.8658 32.5917 3.97124 32.7005 3.97124 32.8863C3.97124 33.0158 3.90872 33.0718 3.81884 33.0718C3.59188 33.0718 3.6556 32.7663 3.6556 32.7663C3.54288 32.791 3.45024 32.9062 3.5032 33.05C3.4176 33.0689 3.34035 33.1148 3.2828 33.1809C3.34364 33.2399 3.41344 33.2854 3.5032 33.3009C3.45004 33.4764 3.52108 33.5622 3.67464 33.5982C3.64364 33.5308 3.6426 33.4686 3.65288 33.41C3.8946 33.4788 4.26512 33.3694 4.26512 32.9518C4.26512 32.5372 3.97736 32.1881 3.43788 32.2753C3.5662 32.214 3.63148 32.0884 3.64468 31.948C3.54668 31.9862 3.43788 31.9916 3.43788 31.9916C3.50096 31.8804 3.58856 31.7845 3.5848 31.5661C3.4848 31.6116 3.39188 31.6958 3.26372 31.6425C3.46492 31.2466 3.21772 30.702 2.58888 30.5732C2.81904 30.843 2.93172 31.1343 2.93172 31.4243C2.93172 32.3641 2.67052 32.5221 2.67052 33.1755C2.67052 33.4489 2.81104 33.7441 3.08956 33.9447V33.9338C2.90548 33.9831 2.78756 34.0738 2.71976 34.1969C3.14036 34.3162 3.75176 34.314 4.08 34.1848C4.45736 34.1411 4.7208 33.8516 4.7984 33.7047C4.876 33.5579 5.02676 33.0266 4.7984 32.5482C4.5484 32.0247 3.36992 29.5258 3.00248 28.7403C2.92456 28.5737 2.87728 28.397 2.87728 28.2056C2.87728 27.7244 3.31808 27.5564 3.56848 27.5564C3.8678 27.5564 4.17256 27.7844 4.17256 28.0692C4.17256 28.2497 4.07456 28.3584 3.93308 28.3584C3.59476 28.3584 3.61532 28.0706 3.68276 27.8892C3.4722 27.9839 3.3498 28.1529 3.38344 28.3311C3.26424 28.3474 3.15076 28.404 3.04604 28.522C3.12844 28.626 3.22892 28.7047 3.38344 28.7075C3.31596 28.984 3.50104 29.1009 3.68276 29.1658C3.62528 28.9628 3.58756 28.7293 3.93308 28.7293C4.18508 28.7293 4.3834 28.6857 4.49908 28.522C4.50588 28.7402 4.52628 29.6022 4.52628 29.6022C4.54084 29.9261 4.09276 29.9169 3.80796 29.8204C3.91544 30.1935 4.13588 30.3952 4.64604 30.3442C4.5222 30.396 4.39024 30.5125 4.39024 30.737C4.39032 31.0407 4.63672 31.3772 4.79848 31.4766L4.87936 28.3146L4.87932 28.3146Z" fill="#FEC50C"/>
<path d="M4.87932 25.8826C4.87932 26.6934 4.1514 27.1101 3.5794 27.1101C2.80876 27.1101 2.39844 26.6494 2.39844 26.0462C2.39844 25.7043 2.46108 25.4898 2.61872 25.1625C2.61872 25.1625 3.88992 22.5189 4.38484 21.4964C4.44656 21.3689 4.46648 21.2237 4.46648 21.0109C4.46648 20.6822 4.14768 20.4136 3.8134 20.4053C3.50868 20.3977 3.17668 20.6894 3.17668 21.0218C3.17668 21.4255 3.38612 21.6055 3.60116 21.6055C3.8658 21.6055 3.97124 21.4967 3.97124 21.3109C3.97124 21.1815 3.90872 21.1255 3.81884 21.1255C3.59188 21.1255 3.6556 21.431 3.6556 21.431C3.54288 21.4063 3.45024 21.2911 3.5032 21.1473C3.4176 21.1284 3.34035 21.0825 3.2828 21.0163C3.34364 20.9573 3.41344 20.9118 3.5032 20.8963C3.45004 20.7208 3.52108 20.6351 3.67464 20.599C3.64364 20.6665 3.6426 20.7286 3.65288 20.7872C3.8946 20.7185 4.26512 20.8279 4.26512 21.2455C4.26512 21.6601 3.97736 22.0092 3.43788 21.9219C3.5662 21.9833 3.63148 22.1089 3.64468 22.2493C3.54668 22.2111 3.43788 22.2057 3.43788 22.2057C3.50096 22.3169 3.58856 22.4127 3.5848 22.6311C3.4848 22.5857 3.39188 22.5015 3.26372 22.5547C3.46492 22.9507 3.21772 23.4952 2.58888 23.6241C2.81904 23.3543 2.93172 23.063 2.93172 22.773C2.93172 21.8331 2.67052 21.6752 2.67052 21.0218C2.67052 20.7484 2.81104 20.4532 3.08956 20.2525V20.2635C2.90548 20.2141 2.78756 20.1235 2.71976 20.0003C3.14036 19.8811 3.75176 19.8833 4.08 20.0124C4.45736 20.0561 4.7208 20.3456 4.7984 20.4926C4.876 20.6394 5.02676 21.1707 4.7984 21.6491C4.5484 22.1726 3.36992 24.6715 3.00248 25.457C2.92456 25.6236 2.87728 25.8003 2.87728 25.9916C2.87728 26.4728 3.31808 26.6408 3.56848 26.6408C3.8678 26.6408 4.17256 26.4128 4.17256 26.128C4.17256 25.9476 4.07456 25.8389 3.93308 25.8389C3.59476 25.8389 3.61532 26.1267 3.68276 26.3081C3.4722 26.2134 3.3498 26.0444 3.38344 25.8662C3.26424 25.8498 3.15076 25.7933 3.04604 25.6752C3.12844 25.5712 3.22892 25.4925 3.38344 25.4897C3.31596 25.2133 3.50104 25.0963 3.68276 25.0315C3.62528 25.2344 3.58756 25.4679 3.93308 25.4679C4.18508 25.4679 4.3834 25.5116 4.49908 25.6753C4.50588 25.457 4.52628 24.5951 4.52628 24.5951C4.54084 24.2711 4.09276 24.2804 3.80796 24.3768C3.91544 24.0037 4.13588 23.802 4.64604 23.8531C4.5222 23.8013 4.39024 23.6848 4.39024 23.4603C4.39032 23.1566 4.63672 22.8201 4.79848 22.7206L4.87936 25.8827L4.87932 25.8826Z" fill="#FEC50C"/>
<path d="M4.79872 37.0833C4.79872 37.0833 5.18312 37.4064 5.31368 37.2443C5.52368 36.9837 4.66808 35.6856 4.66808 35.2285C4.66808 34.4781 5.16876 34.2741 5.787 34.1669C6.20184 34.095 6.87736 34.197 6.87736 34.197C6.75016 34.3679 6.66744 34.4183 6.45312 34.4319C6.69172 34.5558 6.93468 34.8247 6.93468 35.2433C6.93468 35.8888 6.66896 36.1549 6.66896 36.8826C6.66896 37.2863 7 37.8003 7 37.8003C6.41484 37.7417 6.12484 37.1999 6.28984 36.7669C6.19672 36.7535 6.11216 36.7745 6.03952 36.8433C5.99672 36.7233 6.06432 36.584 6.15484 36.4639C6.08192 36.425 6.02836 36.4483 5.9122 36.4723C5.92324 36.3487 5.99732 36.2173 6.1786 36.0936C5.65256 36.2302 5.32888 35.8636 5.32888 35.4797C5.32888 35.1898 5.53204 34.982 5.73064 34.982C5.7948 34.982 5.88908 35.0085 5.94224 35.0482C5.97976 34.9684 5.96044 34.8616 5.92184 34.7818C6.06736 34.8203 6.15976 34.9067 6.094 35.0866C6.2058 35.0969 6.29472 35.1347 6.3552 35.2066C6.29392 35.2851 6.20092 35.3303 6.094 35.3267C6.1754 35.4947 6.08468 35.5887 5.95248 35.6649C5.95248 35.6649 6.03656 35.3267 5.82188 35.3267C5.72536 35.3267 5.6374 35.3581 5.6374 35.5004C5.6374 35.6243 5.74568 35.7959 5.99604 35.7849C6.24636 35.774 6.44932 35.6123 6.44932 35.2127C6.44932 34.8441 6.15196 34.6607 5.76012 34.6489C5.4068 34.6379 5.14012 34.8293 5.14012 35.1939C5.14012 35.679 5.84044 36.7848 5.84044 37.2171C5.84044 37.5415 5.54876 37.7225 5.26336 37.7225C4.89328 37.7225 4.58104 37.3561 4.58104 37.3561L4.79844 37.0835L4.79872 37.0833Z" fill="#FEC50C"/>
<path d="M4.71834 28.3146C4.71834 27.5038 5.44626 27.0871 6.01826 27.0871C6.7889 27.0871 7.19922 27.5479 7.19922 28.151C7.19922 28.493 7.13658 28.7075 6.97894 29.0347C6.97894 29.0347 5.70774 31.6784 5.21282 32.7008C5.1511 32.8284 5.13118 32.9736 5.13118 33.1864C5.13118 33.515 5.44998 33.7837 5.78426 33.7919C6.08898 33.7995 6.42098 33.5078 6.42098 33.1754C6.42098 32.7717 6.21154 32.5917 5.9965 32.5917C5.73186 32.5917 5.62642 32.7005 5.62642 32.8863C5.62642 33.0158 5.68894 33.0718 5.77882 33.0718C6.00578 33.0718 5.94206 32.7663 5.94206 32.7663C6.05478 32.791 6.14742 32.9062 6.09446 33.05C6.18005 33.0689 6.25731 33.1148 6.31486 33.1809C6.25402 33.2399 6.18422 33.2854 6.09446 33.3009C6.14762 33.4764 6.07658 33.5622 5.92302 33.5982C5.95402 33.5308 5.95506 33.4686 5.94478 33.41C5.70306 33.4788 5.33254 33.3694 5.33254 32.9518C5.33254 32.5372 5.6203 32.1881 6.15978 32.2753C6.03146 32.214 5.96618 32.0884 5.95298 31.948C6.05098 31.9862 6.15978 31.9916 6.15978 31.9916C6.0967 31.8804 6.0091 31.7845 6.01286 31.5661C6.11286 31.6116 6.20578 31.6958 6.33394 31.6425C6.13274 31.2466 6.37994 30.702 7.00878 30.5732C6.77862 30.843 6.66594 31.1343 6.66594 31.4243C6.66594 32.3641 6.92714 32.5221 6.92714 33.1755C6.92714 33.4489 6.78662 33.7441 6.5081 33.9447V33.9338C6.69218 33.9831 6.8101 34.0738 6.8779 34.1969C6.4573 34.3162 5.8459 34.314 5.51766 34.1848C5.1403 34.1411 4.87686 33.8516 4.79926 33.7047C4.72166 33.5579 4.5709 33.0266 4.79926 32.5482C5.04926 32.0247 6.22774 29.5258 6.59518 28.7403C6.6731 28.5737 6.72038 28.397 6.72038 28.2056C6.72038 27.7244 6.27958 27.5564 6.02918 27.5564C5.72986 27.5564 5.4251 27.7844 5.4251 28.0692C5.4251 28.2497 5.5231 28.3584 5.66458 28.3584C6.0029 28.3584 5.98234 28.0706 5.9149 27.8892C6.12546 27.9839 6.24786 28.1529 6.21422 28.3311C6.33342 28.3474 6.4469 28.404 6.55162 28.522C6.46922 28.626 6.36874 28.7047 6.21422 28.7075C6.2817 28.984 6.09662 29.1009 5.9149 29.1658C5.97238 28.9628 6.0101 28.7293 5.66458 28.7293C5.41258 28.7293 5.21426 28.6857 5.09858 28.522C5.09178 28.7402 5.07138 29.6022 5.07138 29.6022C5.05682 29.9261 5.5049 29.9169 5.7897 29.8204C5.68222 30.1935 5.46178 30.3952 4.95162 30.3442C5.07546 30.396 5.20742 30.5125 5.20742 30.737C5.20734 31.0407 4.96094 31.3772 4.79918 31.4766L4.7183 28.3146L4.71834 28.3146Z" fill="#FEC50C"/>
<path d="M4.71834 25.8826C4.71834 26.6934 5.44626 27.1101 6.01826 27.1101C6.7889 27.1101 7.19922 26.6494 7.19922 26.0462C7.19922 25.7043 7.13658 25.4898 6.97894 25.1625C6.97894 25.1625 5.70774 22.5189 5.21282 21.4964C5.1511 21.3689 5.13118 21.2237 5.13118 21.0109C5.13118 20.6822 5.44998 20.4136 5.78426 20.4053C6.08898 20.3977 6.42098 20.6894 6.42098 21.0218C6.42098 21.4255 6.21154 21.6055 5.9965 21.6055C5.73186 21.6055 5.62642 21.4967 5.62642 21.3109C5.62642 21.1815 5.68894 21.1255 5.77882 21.1255C6.00578 21.1255 5.94206 21.431 5.94206 21.431C6.05478 21.4063 6.14742 21.2911 6.09446 21.1473C6.18005 21.1284 6.25731 21.0825 6.31486 21.0163C6.25402 20.9573 6.18422 20.9118 6.09446 20.8963C6.14762 20.7208 6.07658 20.6351 5.92302 20.599C5.95402 20.6665 5.95506 20.7286 5.94478 20.7872C5.70306 20.7185 5.33254 20.8279 5.33254 21.2455C5.33254 21.6601 5.6203 22.0092 6.15978 21.9219C6.03146 21.9833 5.96618 22.1089 5.95298 22.2493C6.05098 22.2111 6.15978 22.2057 6.15978 22.2057C6.0967 22.3169 6.0091 22.4127 6.01286 22.6311C6.11286 22.5857 6.20578 22.5015 6.33394 22.5547C6.13274 22.9507 6.37994 23.4952 7.00878 23.6241C6.77862 23.3543 6.66594 23.063 6.66594 22.773C6.66594 21.8331 6.92714 21.6752 6.92714 21.0218C6.92714 20.7484 6.78662 20.4532 6.5081 20.2525V20.2635C6.69218 20.2141 6.8101 20.1235 6.8779 20.0003C6.4573 19.8811 5.8459 19.8833 5.51766 20.0124C5.1403 20.0561 4.87686 20.3456 4.79926 20.4926C4.72166 20.6394 4.5709 21.1707 4.79926 21.6491C5.04926 22.1726 6.22774 24.6715 6.59518 25.457C6.6731 25.6236 6.72038 25.8003 6.72038 25.9916C6.72038 26.4728 6.27958 26.6408 6.02918 26.6408C5.72986 26.6408 5.4251 26.4128 5.4251 26.128C5.4251 25.9476 5.5231 25.8389 5.66458 25.8389C6.0029 25.8389 5.98234 26.1267 5.9149 26.3081C6.12546 26.2134 6.24786 26.0444 6.21422 25.8662C6.33342 25.8498 6.4469 25.7933 6.55162 25.6752C6.46922 25.5712 6.36874 25.4925 6.21422 25.4897C6.2817 25.2133 6.09662 25.0963 5.9149 25.0315C5.97238 25.2344 6.0101 25.4679 5.66458 25.4679C5.41258 25.4679 5.21426 25.5116 5.09858 25.6753C5.09178 25.457 5.07138 24.5951 5.07138 24.5951C5.05682 24.2711 5.5049 24.2804 5.7897 24.3768C5.68222 24.0037 5.46178 23.802 4.95162 23.8531C5.07546 23.8013 5.20742 23.6848 5.20742 23.4603C5.20734 23.1566 4.96094 22.8201 4.79918 22.7206L4.7183 25.8827L4.71834 25.8826Z" fill="#FEC50C"/>
</g>
<defs>
<clipPath id="clip0_306_16077">
<rect width="40" height="40" rx="20" fill="white"/>
</clipPath>
</defs>
</svg>
