<svg width="40" height="40" viewBox="0 0 40 40" fill="none" xmlns="http://www.w3.org/2000/svg">
<g clip-path="url(#clip0_306_17129)">
<path d="M-10 0H50V40H-10V0Z" fill="#FF0000"/>
<path d="M17.143 17.2847C16.3979 16.8218 15.6076 16.438 14.7947 16.1219C14.0947 17.1605 13.6883 18.4024 13.6883 19.7459C13.6883 20.412 13.7899 21.0555 13.9818 21.6652C14.3205 20.8862 14.7495 20.1298 15.2689 19.4072C15.8221 18.6169 16.4543 17.9057 17.143 17.2847ZM15.156 15.6477C16.0366 15.9525 16.8833 16.3477 17.6962 16.8106C17.8768 16.6525 18.0688 16.517 18.2494 16.3815C17.3914 15.9074 16.4769 15.5235 15.5398 15.23C15.4043 15.3654 15.2689 15.5009 15.156 15.6477ZM15.9463 14.8461C16.9623 15.1171 17.9333 15.4896 18.8478 15.9751C19.0623 15.8396 19.2768 15.7154 19.48 15.5912C18.5091 15.0945 17.4817 14.7332 16.4204 14.4735C16.2511 14.5864 16.093 14.7106 15.9463 14.8461ZM16.9059 14.1687C18.0236 14.3945 19.1074 14.7558 20.1235 15.2525C21.1509 14.7558 22.2347 14.3945 23.3411 14.1687C22.4041 13.6155 21.2977 13.2994 20.1235 13.2994C18.9494 13.2994 17.8542 13.6155 16.9059 14.1687ZM23.8266 14.4848C22.7653 14.7332 21.738 15.1058 20.767 15.5912C20.9815 15.7154 21.1848 15.8396 21.3993 15.9751C22.325 15.4896 23.296 15.1171 24.3008 14.8461C24.154 14.7106 23.9959 14.5864 23.8266 14.4848ZM24.7072 15.2413C23.7701 15.5235 22.8669 15.9074 21.9976 16.3815C22.1896 16.517 22.3815 16.6638 22.5621 16.8106C23.3637 16.3477 24.2104 15.9525 25.0911 15.6477C24.9782 15.5009 24.854 15.3654 24.7072 15.2413ZM25.4523 16.1332C24.6395 16.438 23.8605 16.8218 23.1153 17.2847C23.804 17.9057 24.4249 18.6169 24.9894 19.4072C25.4975 20.1298 25.9265 20.8862 26.2765 21.6652C26.4571 21.0443 26.5587 20.412 26.5587 19.7459C26.5587 18.4024 26.1523 17.1605 25.4523 16.1332ZM24.8991 20.5588C24.2217 19.4637 23.4089 18.4927 22.5057 17.6686C22.3025 17.8153 22.0879 17.9621 21.896 18.1089C23.4202 19.5314 24.6507 21.3152 25.4297 23.3925C25.6104 23.1216 25.7797 22.8393 25.9152 22.5571C25.633 21.8797 25.2943 21.2136 24.8991 20.5588ZM21.3202 17.6234C21.5235 17.4767 21.7267 17.3299 21.9412 17.1944C21.7605 17.0363 21.5686 16.8896 21.3767 16.7428C21.1622 16.8783 20.9477 17.0138 20.7332 17.1605H20.7445C20.9364 17.3073 21.1283 17.4654 21.3202 17.6234ZM20.1235 16.7202C20.338 16.5848 20.5638 16.4493 20.767 16.3251C20.5525 16.1896 20.338 16.0541 20.1235 15.9299C19.909 16.0541 19.7058 16.1896 19.4913 16.3251C19.7058 16.4493 19.909 16.5848 20.1235 16.7202ZM19.5139 17.1605C19.2993 17.0138 19.0961 16.8783 18.8816 16.7428C18.6897 16.8896 18.4978 17.0363 18.3058 17.1831C18.5203 17.3299 18.7236 17.4654 18.9268 17.6121C19.1187 17.4541 19.3106 17.3073 19.5139 17.1605ZM20.1235 17.6121C19.9316 17.7589 19.7397 17.917 19.5364 18.0863C19.7397 18.2444 19.9316 18.4137 20.1235 18.5831C20.3154 18.4137 20.5074 18.2444 20.7106 18.0863C20.5187 17.9282 20.3267 17.7589 20.1235 17.6121ZM20.1235 19.7233C19.2655 20.6491 18.5091 21.7104 17.8994 22.8958C17.4817 23.6861 17.1543 24.5102 16.9059 25.3344C17.8542 25.865 18.9494 26.1811 20.1235 26.1811C21.2977 26.1811 22.3928 25.865 23.3411 25.3344C23.0927 24.5102 22.7653 23.6861 22.3476 22.8958C21.738 21.7104 20.9928 20.6491 20.1235 19.7233ZM16.3979 24.0022C17.1317 22.1281 18.2155 20.491 19.5477 19.1363C19.3558 18.9556 19.1639 18.7863 18.9607 18.6056C17.4139 20.1072 16.1721 21.97 15.4156 24.1264C15.6301 24.3635 15.8559 24.578 16.1043 24.7812C16.1946 24.5215 16.2962 24.2619 16.3979 24.0022ZM20.6993 19.1363C22.0315 20.491 23.1153 22.1281 23.8605 24.0022C23.9621 24.2619 24.0524 24.5215 24.1427 24.7812C24.3911 24.578 24.6282 24.3635 24.8427 24.1264C24.075 21.97 22.8331 20.1072 21.2864 18.6056C21.0831 18.7863 20.8912 18.9556 20.6993 19.1363ZM14.8173 23.3925C15.5963 21.3152 16.8269 19.5427 18.3623 18.1202C18.1591 17.9621 17.9559 17.8153 17.7413 17.6686C16.8382 18.504 16.0253 19.475 15.3479 20.5701C14.9527 21.2136 14.6141 21.8797 14.3318 22.5571C14.4673 22.8506 14.6366 23.1216 14.8173 23.3925ZM20.1574 12.7801C24.1314 12.7801 27.3716 16.0203 27.3716 19.9943C27.3716 23.9683 24.1314 27.2085 20.1574 27.2085C16.1833 27.2085 12.9432 23.9683 12.9432 19.9943C12.9432 16.0203 16.1833 12.7801 20.1574 12.7801ZM23.3411 11.1995C23.1379 11.4366 22.9121 11.7414 22.6863 12.2269C22.6299 12.1027 22.6299 11.9559 22.6637 11.7979C22.7202 11.2785 22.8669 10.9624 23.1379 10.5221C23.2282 10.364 23.3185 10.2286 23.3637 10.0592C23.533 9.55117 23.4992 8.87377 23.1266 8.34315C23.1831 8.94151 23.0024 9.43827 22.7992 9.74309C22.7653 9.79954 22.7315 9.83341 22.6863 9.87857C22.4718 10.0931 22.2347 10.3076 21.9299 10.8043C21.7605 11.0753 21.5912 11.4027 21.4331 11.922C21.3654 11.8091 21.3428 11.6737 21.3541 11.5156C21.3315 10.985 21.4218 10.6576 21.6138 10.1721C21.6815 10.0028 21.7493 9.85599 21.7718 9.67536C21.8509 9.15602 21.7154 8.48992 21.2638 8.02703C21.4106 8.60282 21.3202 9.12215 21.1622 9.46085C21.1283 9.5173 21.1057 9.56246 21.0719 9.60762C20.8912 9.85599 20.6993 10.1044 20.4622 10.635C20.3493 10.9398 20.2251 11.2898 20.1574 11.8204C20.0671 11.7188 20.0219 11.5833 20.0106 11.4253C19.909 10.906 19.9429 10.5673 20.0558 10.0592C20.1009 9.88986 20.1461 9.7318 20.1348 9.55117C20.1348 9.02054 19.8977 8.38831 19.3784 7.99316C19.6155 8.54637 19.6042 9.07699 19.5026 9.43827C19.48 9.48343 19.4574 9.53988 19.4348 9.58504C19.2993 9.86728 19.1413 10.1382 18.9945 10.7027C18.9268 11.0188 18.859 11.3914 18.8703 11.922C18.78 11.8317 18.7123 11.7075 18.6671 11.5608C18.4865 11.0527 18.4639 10.7253 18.5091 10.1947C18.5203 10.0141 18.5316 9.85599 18.5091 9.68664C18.4187 9.15602 18.08 8.56895 17.5156 8.26412C17.8317 8.77217 17.8994 9.30279 17.8542 9.66407C17.843 9.72052 17.8317 9.77696 17.8204 9.83341C17.7301 10.1269 17.6172 10.4205 17.5607 11.0076C17.5381 11.3237 17.5268 11.6962 17.6284 12.2269C17.5155 12.1478 17.4365 12.0349 17.3688 11.8995C17.1091 11.4253 17.0414 11.0979 16.9962 10.5785C16.9849 10.3979 16.9736 10.2398 16.9059 10.0705C16.7478 9.56246 16.3188 9.03183 15.7092 8.82862C16.1043 9.26892 16.2624 9.77696 16.2624 10.1495C16.2624 10.206 16.2624 10.2624 16.2511 10.3189C16.2059 10.6237 16.1495 10.9398 16.1833 11.5156C16.2172 11.8317 16.2624 12.2043 16.443 12.7123C16.3188 12.6559 16.2172 12.5543 16.1269 12.4301C15.7995 12.0124 15.6866 11.6962 15.5624 11.1882C15.5172 11.0076 15.4834 10.8608 15.3931 10.6914C15.156 10.2286 14.6479 9.76567 14.0157 9.65278C14.4673 10.0366 14.7044 10.5221 14.7721 10.8834C14.7834 10.9398 14.7834 10.9963 14.7834 11.0527C14.7947 11.3575 14.7834 11.6737 14.9076 12.2494C14.9866 12.5543 15.0882 12.9155 15.3479 13.3784C15.2237 13.3446 15.1108 13.2655 14.9979 13.1526C14.6028 12.7914 14.4334 12.4978 14.2415 12.0124C14.1737 11.843 14.106 11.6962 14.0044 11.5495C13.6883 11.1317 13.1238 10.7592 12.469 10.7479C12.9883 11.0527 13.2931 11.4817 13.4173 11.8317C13.4286 11.8882 13.4399 11.9446 13.4512 12.0011C13.5076 12.3059 13.5415 12.622 13.756 13.1639C13.8802 13.4575 14.0496 13.7962 14.377 14.2139C14.2415 14.2026 14.1173 14.1349 13.9931 14.0445C13.5528 13.751 13.3383 13.48 13.0561 13.0397C12.9657 12.8817 12.8867 12.7462 12.7512 12.622C12.3787 12.2494 11.7577 11.9672 11.1142 12.0575C11.6674 12.2833 12.04 12.6672 12.2206 12.9946C12.2432 13.0397 12.2658 13.0962 12.2883 13.1526C12.3899 13.4349 12.469 13.7397 12.7625 14.2478C12.9319 14.5187 13.1464 14.8235 13.5415 15.1961C13.406 15.1961 13.2706 15.1509 13.1351 15.0832C12.6496 14.8574 12.4012 14.6316 12.0625 14.2365C11.9384 14.101 11.8367 13.9768 11.69 13.8639C11.261 13.5591 10.6062 13.3784 9.98521 13.5704C10.5723 13.7058 11.0013 14.022 11.2158 14.3155C11.261 14.3607 11.2835 14.4058 11.3061 14.4623C11.4529 14.7332 11.5884 15.0268 11.9609 15.4671C12.1642 15.7154 12.4238 15.9864 12.8641 16.2912C12.7399 16.3138 12.6045 16.2912 12.4464 16.2348C11.9384 16.0993 11.6561 15.9074 11.261 15.5687C11.1255 15.4558 11.0013 15.3542 10.8432 15.2638C10.3691 15.0268 9.69167 14.959 9.1046 15.2413C9.70296 15.2751 10.1771 15.5348 10.4481 15.7832C10.482 15.8283 10.5158 15.8622 10.5497 15.9187C10.7416 16.1557 10.911 16.4267 11.3513 16.8106C11.5884 17.0138 11.8932 17.2396 12.3787 17.4767C12.2545 17.5218 12.1077 17.5218 11.9609 17.4879C11.4303 17.4315 11.1255 17.2847 10.6739 17.0138C10.5158 16.9235 10.3804 16.8331 10.211 16.788C9.70296 16.6186 9.03686 16.6525 8.50624 17.0251C9.09331 16.9686 9.60135 17.1492 9.90618 17.3525C9.95134 17.3863 9.9965 17.4202 10.0304 17.4654C10.2562 17.6799 10.4707 17.917 10.9561 18.2218C11.2271 18.3911 11.5658 18.5718 12.0738 18.7185C11.9609 18.7863 11.8255 18.8089 11.6674 18.8089C11.1368 18.8201 10.8094 18.7298 10.3239 18.5379C10.1546 18.4702 10.0078 18.4024 9.82715 18.3798C9.30782 18.3008 8.64171 18.4363 8.17883 18.8879C8.75461 18.7411 9.28524 18.8314 9.61264 18.9895C9.66909 19.0234 9.71425 19.0459 9.75941 19.0798C10.0078 19.2605 10.2562 19.4524 10.7981 19.6895C11.0916 19.8024 11.4416 19.9266 11.9722 19.9943C11.8706 20.0846 11.7351 20.1298 11.5884 20.1411C11.0577 20.254 10.7303 20.2088 10.211 20.0959C10.0417 20.0507 9.8836 20.0169 9.70296 20.0169C9.17234 20.0169 8.54011 20.254 8.15625 20.7733C8.69816 20.5362 9.22879 20.5475 9.59006 20.6491C9.64651 20.6717 9.69167 20.6943 9.74812 20.7168C10.0191 20.8523 10.3013 21.0104 10.8658 21.1572C11.1706 21.2249 11.5432 21.2926 12.0738 21.2813C11.9835 21.3717 11.8593 21.4394 11.7126 21.4846C11.2158 21.6652 10.8771 21.6878 10.3578 21.6426C10.1771 21.6313 10.0191 21.62 9.83844 21.6426C9.31911 21.7329 8.73203 22.0716 8.42721 22.6474C8.92396 22.32 9.45458 22.2523 9.82715 22.2974C9.8836 22.3087 9.92876 22.32 9.98521 22.3313C10.2787 22.4329 10.5723 22.5345 11.1594 22.591C11.4755 22.6135 11.848 22.6248 12.3787 22.5232C12.2996 22.6361 12.1867 22.7152 12.0513 22.7829C11.5884 23.0426 11.2497 23.1103 10.7303 23.1555C10.5497 23.178 10.3916 23.1893 10.2223 23.2458C9.71425 23.4038 9.19492 23.8328 8.98041 24.4425C9.432 24.0474 9.94005 23.9006 10.3126 23.8893C10.3691 23.8893 10.4255 23.8893 10.482 23.9006C10.7755 23.9457 11.0916 24.0022 11.6787 23.9683C11.9948 23.9457 12.3674 23.8893 12.8641 23.7087C12.819 23.8329 12.7174 23.9345 12.5819 24.0248C12.1642 24.3522 11.848 24.4651 11.34 24.5893C11.1706 24.6344 11.0126 24.6683 10.8545 24.7586C10.3804 24.9957 9.92876 25.5038 9.81586 26.136C10.1884 25.6844 10.6739 25.4473 11.0352 25.3796C11.0916 25.3683 11.1481 25.3683 11.2045 25.3683C11.5093 25.357 11.8367 25.3683 12.4012 25.2441C12.7061 25.1651 13.0673 25.0634 13.5415 24.8038C13.5076 24.928 13.4173 25.0522 13.3044 25.1538C12.9432 25.5489 12.6496 25.7183 12.1642 25.9102C12.0061 25.9892 11.8593 26.0457 11.7126 26.1473C11.2835 26.4634 10.911 27.0279 10.8997 27.6827C11.2045 27.1634 11.6448 26.8585 11.9948 26.7343C12.0513 26.7231 12.0964 26.7118 12.1529 26.7005C12.4577 26.644 12.7738 26.6102 13.3157 26.3956C13.6093 26.2715 13.948 26.1021 14.377 25.786C14.3544 25.9102 14.2979 26.0344 14.1963 26.1586C13.9028 26.5989 13.6431 26.8134 13.1915 27.0956C13.0448 27.1859 12.9093 27.265 12.7738 27.4004C12.4012 27.773 12.1303 28.394 12.2206 29.0375C12.4351 28.4843 12.819 28.1117 13.1464 27.9311C13.2028 27.9085 13.248 27.8859 13.3044 27.8633C13.598 27.773 13.9028 27.6827 14.3995 27.3892C14.6705 27.2198 14.9753 27.0053 15.3479 26.6102C15.3592 26.7456 15.314 26.8811 15.235 27.0166C15.0092 27.5021 14.7834 27.7504 14.3883 28.0891C14.2528 28.2133 14.1286 28.3149 14.027 28.4617C13.7222 28.8907 13.5415 29.5455 13.7334 30.1665C13.8576 29.5794 14.1737 29.1504 14.4786 28.9359C14.5237 28.902 14.5689 28.8681 14.6141 28.8456C14.885 28.6988 15.1785 28.5633 15.6301 28.1907C15.8672 27.9875 16.1382 27.7279 16.443 27.2875C16.4656 27.4117 16.443 27.5585 16.3979 27.7053C16.2511 28.2133 16.0704 28.4956 15.7205 28.8907C15.6076 29.0262 15.506 29.1504 15.4269 29.3197C15.1898 29.7939 15.1108 30.46 15.3931 31.0471C15.4382 30.4487 15.6866 29.9745 15.9463 29.7149C15.9801 29.6697 16.0253 29.6358 16.0704 29.602C16.3188 29.41 16.5785 29.2407 16.9623 28.8004C17.1656 28.5633 17.3914 28.2585 17.6284 27.773C17.6736 27.8972 17.6736 28.044 17.651 28.1907C17.5833 28.7214 17.4478 29.0262 17.1769 29.4778C17.0752 29.6358 16.9962 29.7713 16.9398 29.9407C16.7817 30.4487 16.8156 31.1261 17.1881 31.6567C17.1317 31.0584 17.301 30.5503 17.5156 30.2455C17.5494 30.2003 17.5833 30.1552 17.6172 30.1213C17.8317 29.8955 18.0688 29.681 18.3849 29.1955C18.5429 28.9246 18.7236 28.5859 18.8703 28.0778C18.9381 28.1907 18.9607 28.3262 18.9607 28.4843C18.9832 29.0149 18.8929 29.3423 18.6897 29.8278C18.622 29.9971 18.5655 30.1439 18.5316 30.3245C18.4526 30.8439 18.5881 31.51 19.0397 31.9728C18.8929 31.3971 18.9832 30.8664 19.1526 30.539C19.1752 30.4826 19.1977 30.4374 19.2316 30.3923C19.4122 30.1439 19.6155 29.8955 19.8413 29.3536C19.9655 29.0601 20.0896 28.7101 20.1574 28.1794C20.2364 28.2811 20.2816 28.4165 20.3041 28.5633C20.4058 29.0939 20.3719 29.4213 20.2477 29.9407C20.2025 30.11 20.1687 30.2681 20.1687 30.4487C20.1687 30.9793 20.417 31.6116 20.9364 31.9954C20.6993 31.4535 20.6993 30.9229 20.8122 30.5616C20.8235 30.5052 20.8461 30.46 20.8686 30.4036C21.0041 30.1326 21.1622 29.8503 21.3089 29.2859C21.3767 28.981 21.4444 28.6085 21.4331 28.0778C21.5347 28.1682 21.5912 28.2923 21.6364 28.4391C21.8283 28.9359 21.8396 29.2746 21.8057 29.8052C21.7831 29.9745 21.7718 30.1326 21.8057 30.3132C21.8847 30.8439 22.2234 31.4309 22.7992 31.7358C22.4831 31.2277 22.4041 30.6971 22.4605 30.3358C22.4605 30.2794 22.4718 30.2229 22.4944 30.1665C22.5847 29.8729 22.6976 29.5794 22.754 28.9923C22.7653 28.6762 22.7766 28.3036 22.6863 27.773C22.7879 27.852 22.8782 27.9649 22.946 28.1004C23.2056 28.5633 23.2734 28.902 23.3185 29.4213C23.3298 29.602 23.3411 29.76 23.3976 29.9294C23.5669 30.4374 23.9846 30.9568 24.6056 31.1713C24.2104 30.7197 24.0524 30.2116 24.0411 29.8391C24.0411 29.7826 24.0411 29.7262 24.0524 29.6697C24.0975 29.3762 24.1653 29.0601 24.1201 28.473C24.0975 28.1569 24.0411 27.7843 23.8717 27.2875C23.9846 27.344 24.0863 27.4343 24.1766 27.5698C24.504 27.9875 24.6282 28.3036 24.7524 28.8117C24.7862 28.981 24.8314 29.1391 24.9104 29.2971C25.1588 29.7713 25.6555 30.2229 26.2991 30.3358C25.8362 29.9632 25.5991 29.4778 25.5314 29.1165C25.5201 29.0601 25.5201 29.0036 25.5201 28.9472C25.5201 28.6423 25.5314 28.3262 25.4072 27.7504C25.3281 27.4456 25.2152 27.0843 24.9556 26.6102C25.091 26.644 25.204 26.7343 25.3056 26.8472C25.7007 27.2085 25.8701 27.5021 26.0733 27.9875C26.141 28.1456 26.1975 28.2923 26.3104 28.4391C26.6265 28.8681 27.191 29.2407 27.8345 29.252C27.3264 28.9472 27.0216 28.5069 26.8974 28.1569C26.8748 28.1004 26.8636 28.0553 26.8523 27.9988C26.8071 27.694 26.762 27.3779 26.5474 26.836C26.4233 26.5424 26.2652 26.2037 25.9378 25.786C26.0733 25.7973 26.1975 25.8537 26.3216 25.9553C26.762 26.2489 26.9765 26.5085 27.2474 26.9601C27.3377 27.1069 27.4281 27.2537 27.5522 27.3779C27.9248 27.7504 28.5458 28.0214 29.1893 27.9311C28.6361 27.7166 28.2635 27.3327 28.0942 27.0053C28.0603 26.9489 28.0377 26.9037 28.0264 26.8472C27.9248 26.5537 27.8345 26.2489 27.541 25.7521C27.3716 25.4812 27.1571 25.1763 26.7732 24.8038C26.8974 24.8038 27.0329 24.8376 27.1797 24.9167C27.6539 25.1425 27.9135 25.3683 28.2522 25.7634C28.3651 25.8989 28.4667 26.0231 28.6135 26.1247C29.0425 26.4408 29.6973 26.6102 30.3183 26.4295C29.7425 26.294 29.3135 25.9779 29.0877 25.6731C29.0538 25.6279 29.0199 25.5828 28.9973 25.5376C28.8506 25.2667 28.7264 24.9731 28.3538 24.5215C28.1393 24.2844 27.8796 24.0135 27.4393 23.7087C27.5748 23.6861 27.7103 23.7087 27.8571 23.7538C28.3651 23.9006 28.6474 24.0925 29.0538 24.4312C29.1893 24.5441 29.3135 24.6457 29.4715 24.7247C29.9457 24.9618 30.6118 25.0409 31.1989 24.7586C30.6005 24.7135 30.1376 24.4651 29.8667 24.2054C29.8215 24.1715 29.7876 24.1264 29.7538 24.0812C29.5731 23.8328 29.3925 23.5732 28.9635 23.1893C28.7151 22.9861 28.4103 22.7603 27.9361 22.5232C28.0603 22.4781 28.1958 22.4781 28.3538 22.5006C28.8732 22.5684 29.1893 22.7039 29.6296 22.9861C29.7876 23.0764 29.9231 23.1555 30.0925 23.2119C30.6005 23.37 31.2779 23.3361 31.8085 22.9635C31.2102 23.02 30.7134 22.8506 30.4086 22.6361C30.3634 22.6023 30.3183 22.5684 30.2731 22.5345C30.0586 22.32 29.8441 22.0829 29.3473 21.7668C29.0764 21.6087 28.749 21.4281 28.2296 21.2813C28.3425 21.2136 28.4893 21.191 28.6361 21.191C29.178 21.1684 29.5054 21.2588 29.9796 21.462C30.1489 21.5297 30.2957 21.5862 30.4763 21.62C30.9957 21.6991 31.6618 21.5636 32.1246 21.112C31.5489 21.2588 31.0295 21.1684 30.6908 20.9991C30.6457 20.9765 30.5892 20.9539 30.5441 20.9201C30.2957 20.7394 30.0473 20.5475 29.5167 20.3104C29.2231 20.1975 28.8619 20.0733 28.3312 19.9943C28.4329 19.9153 28.5683 19.8701 28.7264 19.8475C29.2457 19.7459 29.5844 19.7798 30.0925 19.904C30.2618 19.9491 30.4199 19.983 30.6005 19.983C31.1311 19.983 31.7634 19.7346 32.1585 19.2266C31.6053 19.4524 31.0747 19.4524 30.7247 19.3395C30.6682 19.3282 30.6118 19.3056 30.5666 19.283C30.2844 19.1476 30.0134 18.9895 29.4489 18.8427C29.1328 18.775 28.7715 18.7072 28.2296 18.7185C28.32 18.6169 28.4441 18.5605 28.5909 18.5153C29.099 18.3234 29.4376 18.3121 29.957 18.346C30.1376 18.3686 30.2957 18.3798 30.4763 18.346C30.9957 18.2669 31.5827 17.9282 31.8876 17.3525C31.3795 17.6686 30.8602 17.7476 30.4876 17.7025C30.4312 17.6912 30.3747 17.6799 30.3183 17.6573C30.0247 17.567 29.7312 17.4541 29.1554 17.3976C28.8393 17.3863 28.4554 17.375 27.9361 17.4767C28.0038 17.3638 28.1167 17.2734 28.2635 17.2057C28.7264 16.946 29.0538 16.8783 29.5731 16.8331C29.7538 16.8218 29.9118 16.8106 30.0812 16.7541C30.5892 16.5848 31.1198 16.167 31.3231 15.5461C30.8828 15.9412 30.3747 16.0993 30.0021 16.1106C29.9457 16.1106 29.8892 16.1106 29.8328 16.0993C29.528 16.0541 29.2119 15.9864 28.6361 16.0316C28.32 16.0541 27.9474 16.1106 27.4393 16.2912C27.4958 16.167 27.5974 16.0654 27.7216 15.9751C28.1393 15.6477 28.4554 15.5235 28.9635 15.3993C29.1441 15.3654 29.2909 15.3203 29.4602 15.2413C29.9231 14.9929 30.386 14.4961 30.4989 13.8526C30.115 14.3155 29.6409 14.5526 29.2683 14.6203C29.2119 14.6316 29.1554 14.6316 29.099 14.6316C28.7941 14.6316 28.478 14.6203 27.9135 14.7445C27.5974 14.8235 27.2361 14.9364 26.7732 15.1961C26.8071 15.0606 26.8861 14.9477 26.999 14.8461C27.3603 14.451 27.6539 14.2816 28.1393 14.0784C28.3087 14.0107 28.4554 13.9542 28.6022 13.8413C29.0199 13.5252 29.3925 12.9607 29.4038 12.3172C29.099 12.8252 28.6699 13.1301 28.32 13.2542C28.2635 13.2768 28.2071 13.2881 28.1506 13.2994C27.8458 13.3559 27.5297 13.3897 26.9877 13.6042C26.7055 13.7284 26.3668 13.8865 25.9378 14.2139C25.9491 14.0897 26.0168 13.9542 26.1071 13.83C26.4007 13.3897 26.6716 13.1752 27.1119 12.9043C27.27 12.8139 27.4055 12.7236 27.5297 12.5994C27.9022 12.2269 28.1845 11.6059 28.0942 10.9624C27.8684 11.5156 27.4845 11.8882 27.1571 12.0688C27.1119 12.0914 27.0555 12.114 27.0103 12.1253C26.7168 12.2269 26.412 12.3172 25.9039 12.6107C25.633 12.7801 25.3281 12.9946 24.9556 13.3784C24.9556 13.2542 25.0007 13.1188 25.0685 12.9833C25.2943 12.4978 25.5201 12.2494 25.9152 11.8995C26.0507 11.7866 26.1749 11.685 26.2878 11.5382C26.5926 11.1092 26.7732 10.4544 26.5813 9.83341C26.4458 10.4092 26.1297 10.8382 25.8362 11.064C25.791 11.0979 25.7459 11.1317 25.6894 11.1543C25.4185 11.3011 25.1249 11.4253 24.6846 11.7979C24.4362 12.0124 24.1653 12.272 23.8717 12.7123C23.8379 12.5881 23.8605 12.4414 23.9169 12.2946C24.0637 11.7866 24.2443 11.5043 24.583 11.0979C24.6959 10.9624 24.8088 10.8495 24.8878 10.6802C25.1249 10.206 25.1927 9.53988 24.9104 8.9528C24.8765 9.55117 24.6282 10.0141 24.3685 10.285C24.3233 10.3302 24.2895 10.364 24.2443 10.3979C23.9959 10.5785 23.725 10.7592 23.3411 11.1995Z" fill="#FFFF00"/>
</g>
<defs>
<clipPath id="clip0_306_17129">
<rect width="40" height="40" rx="20" fill="white"/>
</clipPath>
</defs>
</svg>
