<svg width="18" height="24" viewBox="-4 -4 18 24" fill="none" xmlns="http://www.w3.org/2000/svg">
  <defs>
    <filter id="shadow" x="-50%" y="-50%" width="200%" height="200%">
      <feDropShadow dx="-1" dy="1" stdDeviation="2" flood-color="black" flood-opacity="0.4"/>
    </filter>
  </defs>
  <path d="M9.40061 8.24186C9.70633 9.59999 8.43251 10.9395 7.17567 10.3814C6.12266 9.9721 5.71504 8.63256 6.44536 7.47906C8.09282 5.07906 6.88695 1.30233 4.1525 0C5.39233 2.56743 3.49012 4.93023 2.40312 5.91627C1.31613 6.90233 0.585821 7.92557 0.36502 8.52093C-0.738945 11.4605 0.908508 14.2698 2.02946 14.9395C1.51994 13.6744 1.04439 11.2558 3.04851 8.98604C3.04851 8.98604 2.47106 11.4046 3.72789 13.0791C4.98471 14.7535 4.96774 16 4.96774 16C6.92091 16 8.77219 14.7163 9.55347 12.6139C10.1479 11.3674 10.1989 9.39534 9.40061 8.24186Z" fill="#9E0000" filter="url(#shadow)"/>
</svg>