<?xml version="1.0" encoding="UTF-8"?>
<svg id="_Слой_1" data-name="Слой 1" xmlns="http://www.w3.org/2000/svg" viewBox="0 0 59 59">
  <defs>
    <style>
      .cls-1 {
        fill: #829fb4;
      }
    </style>
  </defs>
  <path class="cls-1" d="m58.35,54.96l-17.06-17.06c-.13-.13-.27-.23-.41-.32-.88-.77-2.22-.72-3.05.13-3.69,3.79-8.64,5.88-13.93,5.88-10.72,0-19.44-8.72-19.44-19.44S13.17,4.69,23.89,4.69s19.44,8.72,19.44,19.44c0,2.58-.5,5.09-1.48,7.46-.47,1.13.07,2.44,1.2,2.91,1.14.47,2.44-.07,2.91-1.2,1.21-2.91,1.82-5.99,1.82-9.16C47.79,10.96,37.07.24,23.89.24S0,10.96,0,24.13s10.72,23.89,23.89,23.89c5.76,0,11.19-2.02,15.51-5.72l15.8,15.8c.43.43,1,.65,1.57.65s1.14-.22,1.57-.65c.87-.87.87-2.28,0-3.15Z"/>
</svg>